<?xml version="1.0" encoding="UTF-8"?>
<svg version="1.1" xmlns="http://www.w3.org/2000/svg" viewBox="0 0 860 600" preserveAspectRatio="xMidYMid meet">
<path d="M0 0 C0 0.66 0 1.32 0 2 C0.86625 2.20625 1.7325 2.4125 2.625 2.625 C6.9691855 4.39485335 8.92087294 6.48099764 12 10 C12 10.66 12 11.32 12 12 C12.66 12 13.32 12 14 12 C15.78305524 14.63892176 16.99059621 16.97178863 18 20 C25.43490651 22.94333827 35.56125238 21.3130079 43 19 C43.75023437 18.66871094 44.50046875 18.33742188 45.2734375 17.99609375 C48.69234098 16.74706741 52.09359045 16.33837255 55.6875 15.9375 C60.48829064 15.518228 60.48829064 15.518228 65 14 C69.50901123 13.78525081 74.02231523 13.81421063 78.53588867 13.81469727 C80.76566672 13.8125452 82.99492125 13.79449019 85.22460938 13.77539062 C94.00561876 13.74080838 102.34462365 14.36111655 111 16 C113.10415643 16.37505741 115.20832177 16.75006487 117.3125 17.125 C118.87534209 17.41482806 120.43798396 17.70575249 122 18 C122 18.66 122 19.32 122 20 C122.61488281 20.06058594 123.22976563 20.12117188 123.86328125 20.18359375 C124.67152344 20.26738281 125.47976563 20.35117188 126.3125 20.4375 C127.51326172 20.55931641 127.51326172 20.55931641 128.73828125 20.68359375 C131 21 131 21 134 22 C134 22.66 134 23.32 134 24 C134.9075 24.04125 135.815 24.0825 136.75 24.125 C142.65701542 24.91666186 147.82260559 28.22001975 153 31 C153 31.66 153 32.32 153 33 C153.86625 33.226875 154.7325 33.45375 155.625 33.6875 C159.66573255 35.25889599 161.87197109 37.02092484 165 40 C165 40.66 165 41.32 165 42 C165.763125 42.28875 166.52625 42.5775 167.3125 42.875 C170 44 170 44 173 46 C173 46.66 173 47.32 173 48 C173.66 48 174.32 48 175 48 C176.40234375 49.42578125 176.40234375 49.42578125 177.9375 51.3125 C179.46619303 53.17742731 180.94126352 54.94424782 182.69140625 56.60546875 C184 58 184 58 184 60 C184.66 60 185.32 60 186 60 C186 60.66 186 61.32 186 62 C186.66 62 187.32 62 188 62 C188 62.99 188 63.98 188 65 C188.66 65 189.32 65 190 65 C190 65.66 190 66.32 190 67 C190.66 67 191.32 67 192 67 C192 67.66 192 68.32 192 69 C192.66 69 193.32 69 194 69 C194 69.66 194 70.32 194 71 C194.66 71 195.32 71 196 71 C196 71.99 196 72.98 196 74 C196.66 74 197.32 74 198 74 C199.53746159 75.92711296 200.93559955 77.83705174 202.3125 79.875 C202.71549316 80.46780762 203.11848633 81.06061523 203.53369141 81.67138672 C210.87857928 92.65470073 215.6598244 103.58357045 215 117 C215.66 117 216.32 117 217 117 C217 129.87 217 142.74 217 156 C216.34 156 215.68 156 215 156 C215.01740234 156.96099609 215.01740234 156.96099609 215.03515625 157.94140625 C215.1104037 165.15441195 214.90498479 171.38550849 211.82421875 178.04296875 C210.50594645 181.17308449 209.63912974 184.42884681 208.6953125 187.6875 C207.94195306 190.19305498 207.04024318 192.59943881 206 195 C205.34 195 204.68 195 204 195 C203.88785156 195.70511719 203.77570312 196.41023437 203.66015625 197.13671875 C202.93685092 200.27389512 201.80542309 202.90127906 200.4375 205.8125 C199.98246094 206.78832031 199.52742187 207.76414063 199.05859375 208.76953125 C198.70925781 209.50558594 198.35992188 210.24164063 198 211 C197.34 211 196.68 211 196 211 C195.855625 211.61875 195.71125 212.2375 195.5625 212.875 C195 215 195 215 194 217 C193.34 217 192.68 217 192 217 C192 218.32 192 219.64 192 221 C191.34 221 190.68 221 190 221 C190 221.99 190 222.98 190 224 C189.34 224 188.68 224 188 224 C187.34 225.98 186.68 227.96 186 230 C185.34 230 184.68 230 184 230 C183.87625 230.8353125 183.87625 230.8353125 183.75 231.6875 C182.76104459 234.73677919 181.15242534 236.65189963 179 239 C178.34 239 177.68 239 177 239 C176.34 240.32 175.68 241.64 175 243 C174.34 243 173.68 243 173 243 C172.34 244.32 171.68 245.64 171 247 C170.34 247 169.68 247 169 247 C168.34 248.32 167.68 249.64 167 251 C166.34 251 165.68 251 165 251 C165 251.66 165 252.32 165 253 C164.34 253 163.68 253 163 253 C163 253.66 163 254.32 163 255 C161.68 255.33 160.36 255.66 159 256 C159 256.66 159 257.32 159 258 C158.34 258 157.68 258 157 258 C157 258.66 157 259.32 157 260 C156.34 260 155.68 260 155 260 C155 260.66 155 261.32 155 262 C154.34 262 153.68 262 153 262 C153 262.99 153 263.98 153 265 C152.34 265 151.68 265 151 265 C151 265.99 151 266.98 151 268 C151.66 268 152.32 268 153 268 C153 269.32 153 270.64 153 272 C153.66 272 154.32 272 155 272 C155 272.99 155 273.98 155 275 C155.66 275 156.32 275 157 275 C157 275.66 157 276.32 157 277 C157.66 277 158.32 277 159 277 C159 277.99 159 278.98 159 280 C159.66 280 160.32 280 161 280 C161 280.66 161 281.32 161 282 C161.66 282 162.32 282 163 282 C163 282.99 163 283.98 163 285 C163.66 285 164.32 285 165 285 C165 286.32 165 287.64 165 289 C165.66 289 166.32 289 167 289 C167 289.99 167 290.98 167 292 C167.66 292 168.32 292 169 292 C169.67667998 293.24460783 170.34094719 294.49596896 171 295.75 C171.37125 296.44609375 171.7425 297.1421875 172.125 297.859375 C173 300 173 300 173 304 C173.66 304 174.32 304 175 304 C175.18175781 304.6290625 175.36351562 305.258125 175.55078125 305.90625 C176.7722165 310.0653936 178.01850798 314.15939933 179.625 318.1875 C181.01268552 321.74344416 181.53569217 325.20815274 182 329 C182.33 329.33 182.66 329.66 183 330 C184.52275323 338.18211773 184.15317085 346.70267565 184.13037109 354.99389648 C184.12503491 357.29743098 184.13033166 359.60076846 184.13671875 361.90429688 C184.14926271 386.48550821 184.14926271 386.48550821 181 398 C180.67 398.33 180.34 398.66 180 399 C179.73671043 400.97467176 179.4774061 402.9501174 179.25390625 404.9296875 C178.96125125 407.31595134 178.48460049 409.64622618 178 412 C178 412.66 178 413.32 178 414 C180.97 413.67 183.94 413.34 187 413 C187 412.34 187 411.68 187 411 C191.38461538 408 191.38461538 408 194 408 C194.66 406.68 195.32 405.36 196 404 C196.66 404 197.32 404 198 404 C198.66 402.35 199.32 400.7 200 399 C200.66 399 201.32 399 202 399 C202 398.01 202 397.02 202 396 C202.66 396 203.32 396 204 396 C204.28875 395.2575 204.5775 394.515 204.875 393.75 C205.82302644 391.43260203 206.84845911 389.22082885 208 387 C208.66 387 209.32 387 210 387 C210 385.68 210 384.36 210 383 C210.66 383 211.32 383 212 383 C212.13277344 382.43796875 212.26554688 381.8759375 212.40234375 381.296875 C213.02437111 378.90633847 213.77115041 376.58964225 214.5625 374.25 C214.83191406 373.45078125 215.10132813 372.6515625 215.37890625 371.828125 C215.68634766 370.92320312 215.68634766 370.92320312 216 370 C216.66 370 217.32 370 218 370 C218 368.35 218 366.7 218 365 C218.66 365 219.32 365 220 365 C220 363.68 220 362.36 220 361 C220.66 361 221.32 361 222 361 C222.33 359.02 222.66 357.04 223 355 C223.66 355 224.32 355 225 355 C225 354.01 225 353.02 225 352 C231.43255365 345.48868038 238.34779048 342.92677184 247.2265625 341.47265625 C249.90078691 341.29196725 249.90078691 341.29196725 251 340 C261.23405544 339.21276497 275.05498239 342.30945885 283 349 C283 349.99 283 350.98 283 352 C284.32 352.33 285.64 352.66 287 353 C287 353.99 287 354.98 287 356 C287.66 356 288.32 356 289 356 C289 356.66 289 357.32 289 358 C289.66 358 290.32 358 291 358 C291 358.66 291 359.32 291 360 C291.66 360 292.32 360 293 360 C293 360.66 293 361.32 293 362 C293.66 362 294.32 362 295 362 C295 362.66 295 363.32 295 364 C295.66 364 296.32 364 297 364 C297 364.66 297 365.32 297 366 C298.32 366.66 299.64 367.32 301 368 C301 368.66 301 369.32 301 370 C301.66 370 302.32 370 303 370 C303 370.99 303 371.98 303 373 C303.66 373 304.32 373 305 373 C309.60001192 379.90001788 309.74996276 386.9468285 309 395 C307.95417045 399.44970877 306.54726225 403.70267673 305 408 C304.32986814 409.9988416 303.66219074 411.99851358 303 414 C302.34 414 301.68 414 301 414 C301 415.65 301 417.3 301 419 C300.34 419 299.68 419 299 419 C298.90589844 419.67933594 298.81179688 420.35867188 298.71484375 421.05859375 C297.83576387 424.67579129 296.27005734 427.78301615 294.5625 431.0625 C294.24990234 431.67416016 293.93730469 432.28582031 293.61523438 432.91601562 C292.74759124 434.61278073 291.87399931 436.30650018 291 438 C290.33076883 439.33204799 289.66266769 440.66467466 289 442 C288.34 442 287.68 442 287 442 C287 443.32 287 444.64 287 446 C286.34 446 285.68 446 285 446 C285 446.99 285 447.98 285 449 C284.34 449 283.68 449 283 449 C283 449.99 283 450.98 283 452 C282.34 452 281.68 452 281 452 C281 452.99 281 453.98 281 455 C280.34 455 279.68 455 279 455 C278.89558594 455.57234375 278.79117188 456.1446875 278.68359375 456.734375 C277.88840501 459.36985768 276.72098509 461.06031308 275.0625 463.25 C274.27552734 464.30960937 274.27552734 464.30960937 273.47265625 465.390625 C272.98667969 465.92171875 272.50070312 466.4528125 272 467 C271.34 467 270.68 467 270 467 C270 467.66 270 468.32 270 469 C269.34 469 268.68 469 268 469 C268 469.99 268 470.98 268 472 C266.68 472.33 265.36 472.66 264 473 C264 473.99 264 474.98 264 476 C262.68 476.33 261.36 476.66 260 477 C260 477.99 260 478.98 260 480 C259.38125 480.0825 258.7625 480.165 258.125 480.25 C255.81653196 480.78810733 255.81653196 480.78810733 255 483 C254 485 254 485 251.875 485.75 C251.25625 485.8325 250.6375 485.915 250 486 C250 486.66 250 487.32 250 488 C249.34 488 248.68 488 248 488 C247.67 488.99 247.34 489.98 247 491 C244.83838835 492.59261211 242.71420695 494.02990576 240.4375 495.4375 C239.80360352 495.83638428 239.16970703 496.23526855 238.51660156 496.64624023 C226.70350256 504 226.70350256 504 223 504 C223 504.66 223 505.32 223 506 C205.97969543 513 205.97969543 513 200 513 C200 513.66 200 514.32 200 515 C194.61972975 516.19088986 189.54708616 517.2919519 184 517 C184 517.66 184 518.32 184 519 C176.18781166 520.01948593 168.41736953 520.15485565 160.55029297 520.13037109 C158.50350541 520.12500918 156.4569372 520.13034859 154.41015625 520.13671875 C135.29541379 520.14770689 135.29541379 520.14770689 131 518 C129.12943209 517.7724985 127.25314042 517.59037189 125.375 517.4375 C124.37210938 517.35371094 123.36921875 517.26992188 122.3359375 517.18359375 C121.56507813 517.12300781 120.79421875 517.06242188 120 517 C120 517.66 120 518.32 120 519 C118.96875 519.4125 117.9375 519.825 116.875 520.25 C113.28557072 521.77168503 110.23147954 523.82063008 107 526 C106.34 526 105.68 526 105 526 C104.34 527.32 103.68 528.64 103 530 C102.34 530 101.68 530 101 530 C101 530.66 101 531.32 101 532 C95.25 535 95.25 535 93 535 C93 535.66 93 536.32 93 537 C92.34 537 91.68 537 91 537 C91 537.66 91 538.32 91 539 C84.71609889 543.25210641 77.8534604 546.75297175 71 550 C70.07058594 550.46148438 69.14117188 550.92296875 68.18359375 551.3984375 C59.66216215 555.51800075 51.06755211 558.40138572 42 561 C40.10701172 561.55880859 40.10701172 561.55880859 38.17578125 562.12890625 C30.41002074 564.32798786 22.85099582 565.71940315 14.8515625 566.60546875 C12.10578293 566.69304203 12.10578293 566.69304203 11 568 C-4.84123317 570.38945975 -23.15876683 570.38945975 -39 568 C-39.33 567.67 -39.66 567.34 -40 567 C-42.00828428 566.68547505 -44.01770746 566.37697241 -46.03149414 566.09985352 C-65.50449969 563.40815708 -85.55881556 557.05063217 -102 546 C-102 545.34 -102 544.68 -102 544 C-102.94875 543.690625 -103.8975 543.38125 -104.875 543.0625 C-108 542 -108 542 -110 541 C-110 540.34 -110 539.68 -110 539 C-110.763125 538.71125 -111.52625 538.4225 -112.3125 538.125 C-115 537 -115 537 -118 535 C-118 534.34 -118 533.68 -118 533 C-122.00996859 530.92587831 -125.15394977 529.87179637 -129.6875 529.9375 C-130.89986328 529.95103516 -130.89986328 529.95103516 -132.13671875 529.96484375 C-132.75160156 529.97644531 -133.36648438 529.98804688 -134 530 C-134 530.99 -134 531.98 -134 533 C-134.66 533 -135.32 533 -136 533 C-136.268125 533.886875 -136.53625 534.77375 -136.8125 535.6875 C-137.9250635 538.7909666 -139.10195778 541.31110685 -141 544 C-141.66 544 -142.32 544 -143 544 C-143.103125 544.5775 -143.20625 545.155 -143.3125 545.75 C-144.10896465 548.35661158 -145.19065277 549.9735311 -147 552 C-147.66 552 -148.32 552 -149 552 C-149 552.66 -149 553.32 -149 554 C-149.66 554 -150.32 554 -151 554 C-151 554.66 -151 555.32 -151 556 C-152.32 556.33 -153.64 556.66 -155 557 C-155 557.66 -155 558.32 -155 559 C-156.98 559.66 -158.96 560.32 -161 561 C-161 561.66 -161 562.32 -161 563 C-161.92683594 563.27714844 -162.85367187 563.55429687 -163.80859375 563.83984375 C-165.00613281 564.20207031 -166.20367187 564.56429687 -167.4375 564.9375 C-168.63246094 565.29714844 -169.82742188 565.65679688 -171.05859375 566.02734375 C-173.85867545 566.70889142 -173.85867545 566.70889142 -175 568 C-188.1024945 569.14016001 -198.22088885 566.23936067 -209 559 C-216.54482644 554.06069625 -223.65577826 554.03999678 -232.4140625 555.61328125 C-236.93398565 556.62636747 -241.37028816 557.81418339 -245.8125 559.125 C-271.01386622 566.0430221 -300.73386781 562.19175163 -325 554 C-325 553.34 -325 552.68 -325 552 C-327.64 551.34 -330.28 550.68 -333 550 C-333 549.34 -333 548.68 -333 548 C-334.98 547.34 -336.96 546.68 -339 546 C-339 545.34 -339 544.68 -339 544 C-339.86625 543.7525 -340.7325 543.505 -341.625 543.25 C-345.22930787 541.91507116 -347.97975979 540.37304588 -351 538 C-351 537.01 -351 536.02 -351 535 C-351.99 534.67 -352.98 534.34 -354 534 C-354 533.34 -354 532.68 -354 532 C-354.66 532 -355.32 532 -356 532 C-356 531.34 -356 530.68 -356 530 C-356.66 530 -357.32 530 -358 530 C-358 529.34 -358 528.68 -358 528 C-358.66 528 -359.32 528 -360 528 C-360 527.34 -360 526.68 -360 526 C-361.32 525.67 -362.64 525.34 -364 525 C-364 524.01 -364 523.02 -364 522 C-364.804375 521.731875 -365.60875 521.46375 -366.4375 521.1875 C-367.283125 520.795625 -368.12875 520.40375 -369 520 C-369.33 519.01 -369.66 518.02 -370 517 C-372.00016466 515.79117904 -372.00016466 515.79117904 -374 515 C-374 514.34 -374 513.68 -374 513 C-374.66 513 -375.32 513 -376 513 C-376 512.34 -376 511.68 -376 511 C-376.66 511 -377.32 511 -378 511 C-378 510.01 -378 509.02 -378 508 C-378.66 508 -379.32 508 -380 508 C-384 502.70588235 -384 502.70588235 -384 499 C-384.66 499 -385.32 499 -386 499 C-386.33 496.36 -386.66 493.72 -387 491 C-387.66 491 -388.32 491 -389 491 C-389 489.35 -389 487.7 -389 486 C-389.66 486 -390.32 486 -391 486 C-391 483.69 -391 481.38 -391 479 C-391.66 479 -392.32 479 -393 479 C-393 475.7 -393 472.4 -393 469 C-393.66 469 -394.32 469 -395 469 C-395.02886751 464.85418113 -395.04675327 460.70838784 -395.0625 456.5625 C-395.07087891 455.37849609 -395.07925781 454.19449219 -395.08789062 452.97460938 C-395.09111328 451.84990234 -395.09433594 450.72519531 -395.09765625 449.56640625 C-395.10289307 448.52427979 -395.10812988 447.48215332 -395.11352539 446.40844727 C-395 444 -395 444 -394 443 C-393.76572222 440.98405418 -393.58663876 438.961526 -393.4375 436.9375 C-393.35371094 435.83277344 -393.26992188 434.72804688 -393.18359375 433.58984375 C-393.12300781 432.73519531 -393.06242188 431.88054687 -393 431 C-392.34 431 -391.68 431 -391 431 C-391 428.36 -391 425.72 -391 423 C-390.34 423 -389.68 423 -389 423 C-389 421.02 -389 419.04 -389 417 C-388.34 417 -387.68 417 -387 417 C-387.07154297 415.48599609 -387.07154297 415.48599609 -387.14453125 413.94140625 C-386.99186593 409.77818179 -386.14633609 406.82342621 -384.6875 402.9375 C-384.25824219 401.77089844 -383.82898438 400.60429687 -383.38671875 399.40234375 C-382 396 -382 396 -380.42578125 392.875 C-379.12933143 390.26078885 -378.26388137 387.86794527 -377.5 385.0625 C-376.29464543 380.87186311 -374.78020348 376.9876558 -373 373 C-370.04958574 366.12754912 -367.82043023 359.25413864 -366 352 C-365.34 352 -364.68 352 -364 352 C-364 350.35 -364 348.7 -364 347 C-363.34 347 -362.68 347 -362 347 C-362 345.02 -362 343.04 -362 341 C-361.34 341 -360.68 341 -360 341 C-360 338.69 -360 336.38 -360 334 C-359.34 334 -358.68 334 -358 334 C-358 330.04 -358 326.08 -358 322 C-358.66 322 -359.32 322 -360 322 C-360 321.01 -360 320.02 -360 319 C-367.8799809 316.3733397 -377.17846369 318.22078519 -384.7734375 321.0234375 C-388.71610444 322.21673863 -392.40209274 322.53988465 -396.5 322.75 C-397.67344971 322.81465454 -397.67344971 322.81465454 -398.87060547 322.88061523 C-406.09831206 323.1809741 -412.8918664 322.38277197 -420 321 C-420 320.34 -420 319.68 -420 319 C-421.2375 318.87625 -422.475 318.7525 -423.75 318.625 C-426.8762197 318.24253695 -429.28879237 317.69450477 -432 316 C-432 315.34 -432 314.68 -432 314 C-433.98 313.34 -435.96 312.68 -438 312 C-438 311.34 -438 310.68 -438 310 C-439.91583647 309.8041991 -441.83272539 309.61867786 -443.75 309.4375 C-444.81734375 309.33308594 -445.8846875 309.22867187 -446.984375 309.12109375 C-449.64141204 309.01439926 -451.49960572 309.18069605 -454 310 C-454 311.32 -454 312.64 -454 314 C-454.66 314 -455.32 314 -456 314 C-456 315.32 -456 316.64 -456 318 C-456.66 318 -457.32 318 -458 318 C-458.03738281 318.56847656 -458.07476562 319.13695312 -458.11328125 319.72265625 C-458.56943958 325.0802806 -459.78397373 329.05655678 -462 334 C-463.09249776 337.64330702 -464.06032244 341.31459792 -465 345 C-465.66 345 -466.32 345 -467 345 C-466.938125 345.680625 -466.87625 346.36125 -466.8125 347.0625 C-467.05276293 350.82661927 -468.46919726 353.57100187 -470 357 C-470.69140522 359.77888613 -470.69140522 359.77888613 -471 362 C-471.66 362 -472.32 362 -473 362 C-472.95875 362.70125 -472.9175 363.4025 -472.875 364.125 C-473.01668332 367.38371628 -473.86734686 369.9559947 -475 373 C-475.66 373 -476.32 373 -477 373 C-476.95875 373.70125 -476.9175 374.4025 -476.875 375.125 C-477.01668332 378.38371628 -477.86734686 380.9559947 -479 384 C-479.66 384 -480.32 384 -481 384 C-480.95875 384.680625 -480.9175 385.36125 -480.875 386.0625 C-481.02549965 389.59924168 -481.94375853 392.63323033 -483 396 C-483.66 396 -484.32 396 -485 396 C-485 397.98 -485 399.96 -485 402 C-485.66 402 -486.32 402 -487 402 C-487 403.65 -487 405.3 -487 407 C-487.66 407 -488.32 407 -489 407 C-489.05607422 407.96099609 -489.05607422 407.96099609 -489.11328125 408.94140625 C-489.54761159 414.65583091 -490.56962989 418.83546352 -493 424 C-493.69140522 426.77888613 -493.69140522 426.77888613 -494 429 C-494.66 429 -495.32 429 -496 429 C-495.938125 429.680625 -495.87625 430.36125 -495.8125 431.0625 C-496.00623503 434.09768216 -496.86088845 436.15511043 -498.1328125 438.88671875 C-499.86573881 443.10975089 -500.87397828 447.5837588 -502 452 C-502.66 452 -503.32 452 -504 452 C-503.938125 452.680625 -503.87625 453.36125 -503.8125 454.0625 C-504.05276293 457.82661927 -505.46919726 460.57100187 -507 464 C-507.69140522 466.77888613 -507.69140522 466.77888613 -508 469 C-508.66 469 -509.32 469 -510 469 C-510 470.65 -510 472.3 -510 474 C-510.66 474 -511.32 474 -512 474 C-511.95875 474.680625 -511.9175 475.36125 -511.875 476.0625 C-512.02549965 479.59924168 -512.94375853 482.63323033 -514 486 C-514.66 486 -515.32 486 -516 486 C-515.95875 486.680625 -515.9175 487.36125 -515.875 488.0625 C-516.02549965 491.59924168 -516.94375853 494.63323033 -518 498 C-518.66 498 -519.32 498 -520 498 C-520 499.65 -520 501.3 -520 503 C-520.66 503 -521.32 503 -522 503 C-522.01417969 503.60585938 -522.02835938 504.21171875 -522.04296875 504.8359375 C-522.39002078 510.93279754 -523.80664102 515.25194819 -526.72265625 520.59375 C-528.5083662 523.95765621 -529.73730575 527.41129003 -531 531 C-531.66 531 -532.32 531 -533 531 C-533 531.99 -533 532.98 -533 534 C-533.66 534 -534.32 534 -535 534 C-535 534.99 -535 535.98 -535 537 C-535.66 537 -536.32 537 -537 537 C-537.99 539.475 -537.99 539.475 -539 542 C-539.66 542 -540.32 542 -541 542 C-541 542.66 -541 543.32 -541 544 C-541.66 544 -542.32 544 -543 544 C-543.66 545.32 -544.32 546.64 -545 548 C-545.66 548 -546.32 548 -547 548 C-547 548.66 -547 549.32 -547 550 C-547.969375 550.268125 -548.93875 550.53625 -549.9375 550.8125 C-551.4534375 551.4003125 -551.4534375 551.4003125 -553 552 C-553.33 552.99 -553.66 553.98 -554 555 C-556.60242414 556.64820195 -557.86248779 557 -561 557 C-561 557.66 -561 558.32 -561 559 C-567.11898884 560.77762292 -572.64199642 561.33658335 -579 561.3125 C-580.27617188 561.33666992 -580.27617188 561.33666992 -581.578125 561.36132812 C-592.3045954 561.36955395 -602.28971657 556.65946548 -610.125 549.3125 C-612 547 -612 547 -612 544 C-613.32 543.67 -614.64 543.34 -616 543 C-616 542.34 -616 541.68 -616 541 C-616.66 541 -617.32 541 -618 541 C-618 540.34 -618 539.68 -618 539 C-619.32 538.67 -620.64 538.34 -622 538 C-622 537.01 -622 536.02 -622 535 C-622.61875 534.938125 -623.2375 534.87625 -623.875 534.8125 C-626 534 -626 534 -627.25 531.4375 C-627.4975 530.633125 -627.745 529.82875 -628 529 C-628.66 529 -629.32 529 -630 529 C-630 528.01 -630 527.02 -630 526 C-630.66 526 -631.32 526 -632 526 C-632 524.68 -632 523.36 -632 522 C-632.66 522 -633.32 522 -634 522 C-636.96500703 513.74033756 -638.71654636 505.81518659 -638 497 C-637.67 496.34 -637.34 495.68 -637 495 C-636.69208131 492.66922657 -636.49104726 490.33758104 -636.28125 487.99609375 C-636 486 -636 486 -635 485 C-634.63239269 482.67182036 -634.29758419 480.3381615 -634 478 C-633.34 478 -632.68 478 -632 478 C-632.04125 477.13375 -632.0825 476.2675 -632.125 475.375 C-631.99542279 471.87641532 -631.23980344 469.25448403 -630 466 C-629.34 466 -628.68 466 -628 466 C-628 464.35 -628 462.7 -628 461 C-627.34 461 -626.68 461 -626 461 C-626.061875 460.319375 -626.12375 459.63875 -626.1875 458.9375 C-625.94723707 455.17338073 -624.53080274 452.42899813 -623 449 C-622.30859478 446.22111387 -622.30859478 446.22111387 -622 444 C-621.34 444 -620.68 444 -620 444 C-620 442.35 -620 440.7 -620 439 C-619.34 439 -618.68 439 -618 439 C-618.04125 438.319375 -618.0825 437.63875 -618.125 436.9375 C-617.97450035 433.40075832 -617.05624147 430.36676967 -616 427 C-615.34 427 -614.68 427 -614 427 C-614 425.35 -614 423.7 -614 422 C-613.34 422 -612.68 422 -612 422 C-612 420.35 -612 418.7 -612 417 C-611.34 417 -610.68 417 -610 417 C-609.97873047 416.12601562 -609.97873047 416.12601562 -609.95703125 415.234375 C-609.5838348 408.81943063 -607.87828233 403.86884113 -605.26953125 398.02734375 C-603.67848591 394.23331254 -602.63872251 390.40579407 -601.625 386.42578125 C-600.88834105 383.5666237 -599.97848494 380.78491868 -599 378 C-598.34 378 -597.68 378 -597 378 C-597 376.35 -597 374.7 -597 373 C-596.34 373 -595.68 373 -595 373 C-595.04125 372.319375 -595.0825 371.63875 -595.125 370.9375 C-594.97450035 367.40075832 -594.05624147 364.36676967 -593 361 C-592.34 361 -591.68 361 -591 361 C-591 359.35 -591 357.7 -591 356 C-590.34 356 -589.68 356 -589 356 C-589 354.35 -589 352.7 -589 351 C-588.34 351 -587.68 351 -587 351 C-587.04125 350.319375 -587.0825 349.63875 -587.125 348.9375 C-586.97450035 345.40075832 -586.05624147 342.36676967 -585 339 C-584.34 339 -583.68 339 -583 339 C-583 337.35 -583 335.7 -583 334 C-582.34 334 -581.68 334 -581 334 C-581 332.02 -581 330.04 -581 328 C-580.34 328 -579.68 328 -579 328 C-578.94392578 327.03900391 -578.94392578 327.03900391 -578.88671875 326.05859375 C-578.4578435 320.41594089 -577.48374588 316.15147294 -575 311 C-572.37511514 304.93452902 -570.32056948 298.89276768 -568.66015625 292.49609375 C-567.89894936 289.61792094 -566.98671996 286.80835681 -566 284 C-565.34 284 -564.68 284 -564 284 C-564.061875 283.319375 -564.12375 282.63875 -564.1875 281.9375 C-563.94723707 278.17338073 -562.53080274 275.42899813 -561 272 C-560.30859478 269.22111387 -560.30859478 269.22111387 -560 267 C-559.34 267 -558.68 267 -558 267 C-558 265.35 -558 263.7 -558 262 C-557.34 262 -556.68 262 -556 262 C-556.04125 261.319375 -556.0825 260.63875 -556.125 259.9375 C-555.97450035 256.40075832 -555.05624147 253.36676967 -554 250 C-553.34 250 -552.68 250 -552 250 C-552 248.35 -552 246.7 -552 245 C-551.34 245 -550.68 245 -550 245 C-550 243.02 -550 241.04 -550 239 C-549.34 239 -548.68 239 -548 239 C-548 237.35 -548 235.7 -548 234 C-547.34 234 -546.68 234 -546 234 C-545.67 230.37 -545.34 226.74 -545 223 C-544.34 223 -543.68 223 -543 223 C-543.061875 222.29875 -543.12375 221.5975 -543.1875 220.875 C-542.95406061 217.29559598 -541.60810565 215.21621129 -540 212 C-539.46896395 210.17541461 -538.97144564 208.34088297 -538.5 206.5 C-537.42038901 202.31650742 -535.93315481 198.86630962 -534 195 C-532.88991792 191.3605528 -531.92583555 187.69020979 -531 184 C-530.34 184 -529.68 184 -529 184 C-529.061875 183.319375 -529.12375 182.63875 -529.1875 181.9375 C-528.94723707 178.17338073 -527.53080274 175.42899813 -526 172 C-525.30859478 169.22111387 -525.30859478 169.22111387 -525 167 C-524.34 167 -523.68 167 -523 167 C-523.04125 166.29875 -523.0825 165.5975 -523.125 164.875 C-522.98331668 161.61628372 -522.13265314 159.0440053 -521 156 C-520.34 156 -519.68 156 -519 156 C-519.04125 155.29875 -519.0825 154.5975 -519.125 153.875 C-518.98331668 150.61628372 -518.13265314 148.0440053 -517 145 C-516.34 145 -515.68 145 -515 145 C-514.96261719 144.35933594 -514.92523437 143.71867188 -514.88671875 143.05859375 C-514.45684936 137.40286117 -513.40969953 133.19012207 -511 128 C-510.47730566 126.34031075 -509.97869427 124.67291051 -509.5 123 C-508.29600282 118.83617641 -506.70834402 114.98613604 -505 111 C-504.18677089 108.4713025 -503.43530181 105.92992204 -502.6953125 103.37890625 C-501.87134274 100.5598187 -500.95060585 97.77869401 -500 95 C-499.34 95 -498.68 95 -498 95 C-498 93.02 -498 91.04 -498 89 C-497.34 89 -496.68 89 -496 89 C-496.04125 88.29875 -496.0825 87.5975 -496.125 86.875 C-495.98331668 83.61628372 -495.13265314 81.0440053 -494 78 C-493.34 78 -492.68 78 -492 78 C-492 76.02 -492 74.04 -492 72 C-491.34 72 -490.68 72 -490 72 C-490.04125 71.29875 -490.0825 70.5975 -490.125 69.875 C-489.98331668 66.61628372 -489.13265314 64.0440053 -488 61 C-487.34 61 -486.68 61 -486 61 C-486 59.35 -486 57.7 -486 56 C-485.34 56 -484.68 56 -484 56 C-484 54.35 -484 52.7 -484 51 C-483.34 51 -482.68 51 -482 51 C-481.9175 49.96875 -481.835 48.9375 -481.75 47.875 C-480.93536054 43.66602943 -479.67084086 41.31831743 -477 38 C-476.34 38 -475.68 38 -475 38 C-474.34 36.35 -473.68 34.7 -473 33 C-472.34 33 -471.68 33 -471 33 C-471 32.34 -471 31.68 -471 31 C-470.34 31 -469.68 31 -469 31 C-469 30.34 -469 29.68 -469 29 C-467.3203125 27.7109375 -467.3203125 27.7109375 -465.125 26.375 C-464.40570313 25.92898437 -463.68640625 25.48296875 -462.9453125 25.0234375 C-461 24 -461 24 -459 24 C-459 23.34 -459 22.68 -459 22 C-456.09399739 20.74335022 -454.20395416 20 -451 20 C-451 19.34 -451 18.68 -451 18 C-439.6694798 15.07599479 -428.3305202 15.07599479 -417 18 C-417 18.66 -417 19.32 -417 20 C-416.05125 20.144375 -415.1025 20.28875 -414.125 20.4375 C-411 21 -411 21 -409 22 C-409 22.66 -409 23.32 -409 24 C-407.68 24.33 -406.36 24.66 -405 25 C-405 25.66 -405 26.32 -405 27 C-404.34 27 -403.68 27 -403 27 C-403 27.66 -403 28.32 -403 29 C-402.34 29 -401.68 29 -401 29 C-401 29.66 -401 30.32 -401 31 C-400.34 31 -399.68 31 -399 31 C-399 31.66 -399 32.32 -399 33 C-398.34 33 -397.68 33 -397 33 C-394 36.46153846 -394 36.46153846 -394 39 C-393.34 39 -392.68 39 -392 39 C-392 39.66 -392 40.32 -392 41 C-391.34 41 -390.68 41 -390 41 C-390 41.66 -390 42.32 -390 43 C-389.34 43 -388.68 43 -388 43 C-388 43.66 -388 44.32 -388 45 C-387.34 45 -386.68 45 -386 45 C-386 45.66 -386 46.32 -386 47 C-385.34 47 -384.68 47 -384 47 C-382 50 -382 50 -382 53 C-381.34 53 -380.68 53 -380 53 C-378.19336627 56.9745942 -377.58016925 60.69017128 -377 65 C-376.67 65.33 -376.34 65.66 -376 66 C-375.90100477 67.54955559 -375.86920476 69.10353673 -375.8671875 70.65625 C-375.86589844 71.59597656 -375.86460937 72.53570312 -375.86328125 73.50390625 C-375.86714844 74.49261719 -375.87101562 75.48132813 -375.875 76.5 C-375.87113281 77.48871094 -375.86726563 78.47742188 -375.86328125 79.49609375 C-375.86521484 80.90568359 -375.86521484 80.90568359 -375.8671875 82.34375 C-375.86831543 83.21193359 -375.86944336 84.08011719 -375.87060547 84.97460938 C-376 87 -376 87 -377 88 C-377.144375 89.03125 -377.28875 90.0625 -377.4375 91.125 C-377.9917917 94.94345392 -378.87414012 98.32219105 -380 102 C-380.66 102 -381.32 102 -382 102 C-382 103.98 -382 105.96 -382 108 C-382.66 108 -383.32 108 -384 108 C-383.95875 108.70125 -383.9175 109.4025 -383.875 110.125 C-384.01668332 113.38371628 -384.86734686 115.9559947 -386 119 C-386.66 119 -387.32 119 -388 119 C-388 120.65 -388 122.3 -388 124 C-388.66 124 -389.32 124 -390 124 C-390 125.98 -390 127.96 -390 130 C-390.66 130 -391.32 130 -392 130 C-392 131.98 -392 133.96 -392 136 C-392.66 136 -393.32 136 -394 136 C-394.03738281 136.58007812 -394.07476562 137.16015625 -394.11328125 137.7578125 C-394.54686818 142.90984546 -395.55467365 146.39150034 -398 151 C-398.80975606 153.50440019 -399.5259566 156.02821289 -400.25 158.55859375 C-401.25079928 161.81640389 -402.65811974 164.86894607 -404 168 C-405.06891584 171.31412719 -406.04963297 174.65012471 -407 178 C-407.66 178 -408.32 178 -409 178 C-408.9690625 179.2065625 -408.9690625 179.2065625 -408.9375 180.4375 C-409 183 -409 183 -410 184 C-410.50042146 186.91538029 -410.50042146 186.91538029 -410 190 C-406.22180677 192.97596516 -403.18701599 193.39390453 -398.45703125 193.4765625 C-397.21888672 193.5075 -395.98074219 193.5384375 -394.70507812 193.5703125 C-393.42052734 193.58835938 -392.13597656 193.60640625 -390.8125 193.625 C-388.25643103 193.67584175 -385.70043124 193.73033686 -383.14453125 193.7890625 C-382.01378174 193.80662598 -380.88303223 193.82418945 -379.71801758 193.84228516 C-377 194 -377 194 -375 195 C-372.2432775 195.28788558 -369.51395055 195.51330144 -366.75 195.6875 C-365.62271484 195.77741211 -365.62271484 195.77741211 -364.47265625 195.86914062 C-357.02234576 196.3437241 -352.04195877 194.49634141 -346 190 C-345.67 189.34 -345.34 188.68 -345 188 C-344.34 188 -343.68 188 -343 188 C-342.896875 187.443125 -342.79375 186.88625 -342.6875 186.3125 C-341.85821592 183.5230899 -340.65700944 181.3860936 -339 179 C-338.34 179 -337.68 179 -337 179 C-337 177.68 -337 176.36 -337 175 C-336.34 175 -335.68 175 -335 175 C-335 174.01 -335 173.02 -335 172 C-334.34 172 -333.68 172 -333 172 C-332.855625 171.38125 -332.71125 170.7625 -332.5625 170.125 C-332 168 -332 168 -331 166 C-330.34 166 -329.68 166 -329 166 C-329 164.68 -329 163.36 -329 162 C-328.34 162 -327.68 162 -327 162 C-327 161.01 -327 160.02 -327 159 C-326.34 159 -325.68 159 -325 159 C-325 157.68 -325 156.36 -325 155 C-324.34 155 -323.68 155 -323 155 C-322.67 153.02 -322.34 151.04 -322 149 C-321.34 149 -320.68 149 -320 149 C-319.896875 148.46375 -319.79375 147.9275 -319.6875 147.375 C-318.81907303 144.37497956 -317.44379704 141.7620465 -316 139 C-315.34 139 -314.68 139 -314 139 C-314 137.68 -314 136.36 -314 135 C-313.34 135 -312.68 135 -312 135 C-311.896875 134.46375 -311.79375 133.9275 -311.6875 133.375 C-310.81907303 130.37497956 -309.44379704 127.7620465 -308 125 C-307.34 125 -306.68 125 -306 125 C-305.855625 124.401875 -305.71125 123.80375 -305.5625 123.1875 C-305.1127561 121.43849596 -304.57107659 119.71322977 -304 118 C-303.34 118 -302.68 118 -302 118 C-302 116.68 -302 115.36 -302 114 C-301.34 114 -300.68 114 -300 114 C-300 113.01 -300 112.02 -300 111 C-299.34 111 -298.68 111 -298 111 C-298 110.01 -298 109.02 -298 108 C-297.34 108 -296.68 108 -296 108 C-296 106.68 -296 105.36 -296 104 C-295.34 104 -294.68 104 -294 104 C-294 103.01 -294 102.02 -294 101 C-293.34 101 -292.68 101 -292 101 C-292 99.68 -292 98.36 -292 97 C-291.34 97 -290.68 97 -290 97 C-289.67 95.02 -289.34 93.04 -289 91 C-288.34 91 -287.68 91 -287 91 C-287 89.68 -287 88.36 -287 87 C-286.34 87 -285.68 87 -285 87 C-284.896875 86.46375 -284.79375 85.9275 -284.6875 85.375 C-283.81907303 82.37497956 -282.44379704 79.7620465 -281 77 C-280.34 77 -279.68 77 -279 77 C-279 75.68 -279 74.36 -279 73 C-278.34 73 -277.68 73 -277 73 C-276.88785156 72.44828125 -276.77570313 71.8965625 -276.66015625 71.328125 C-275.88639227 68.59934789 -274.73182306 66.27227057 -273.4375 63.75 C-272.98246094 62.85796875 -272.52742188 61.9659375 -272.05859375 61.046875 C-271.70925781 60.37140625 -271.35992187 59.6959375 -271 59 C-270.34 59 -269.68 59 -269 59 C-269 58.01 -269 57.02 -269 56 C-268.34 56 -267.68 56 -267 56 C-267 54.68 -267 53.36 -267 52 C-266.34 52 -265.68 52 -265 52 C-265 50.68 -265 49.36 -265 48 C-264.34 48 -263.68 48 -263 48 C-263 47.34 -263 46.68 -263 46 C-262.34 46 -261.68 46 -261 46 C-261 44.68 -261 43.36 -261 42 C-260.34 42 -259.68 42 -259 42 C-258.9175 41.2575 -258.835 40.515 -258.75 39.75 C-257.85190201 36.45697405 -256.61583926 35.14023212 -254 33 C-253.34 33 -252.68 33 -252 33 C-251.62875 32.09507813 -251.62875 32.09507813 -251.25 31.171875 C-249.79440027 28.64277047 -248.48875791 27.73227493 -246 26.25 C-245.29875 25.82203125 -244.5975 25.3940625 -243.875 24.953125 C-242 24 -242 24 -240 24 C-240 23.34 -240 22.68 -240 22 C-236.91190305 20.23537317 -235.76687864 20 -232 20 C-232 19.34 -232 18.68 -232 18 C-220.65601169 14.63881828 -207.34398831 14.63881828 -196 18 C-196 18.66 -196 19.32 -196 20 C-195.05125 20.144375 -194.1025 20.28875 -193.125 20.4375 C-190 21 -190 21 -188 22 C-188 22.66 -188 23.32 -188 24 C-186.68 24.33 -185.36 24.66 -184 25 C-184 25.66 -184 26.32 -184 27 C-183.34 27 -182.68 27 -182 27 C-182 27.66 -182 28.32 -182 29 C-181.34 29 -180.68 29 -180 29 C-180 29.66 -180 30.32 -180 31 C-179.34 31 -178.68 31 -178 31 C-174 35.47058824 -174 35.47058824 -174 38 C-173.401875 38.268125 -172.80375 38.53625 -172.1875 38.8125 C-169.98180967 40.00987475 -168.56416813 41.04478984 -167 43 C-167 43.99 -167 44.98 -167 46 C-166.34 46 -165.68 46 -165 46 C-165 46.66 -165 47.32 -165 48 C-164.34 48 -163.68 48 -163 48 C-163 48.99 -163 49.98 -163 51 C-162.34 51 -161.68 51 -161 51 C-161 52.32 -161 53.64 -161 55 C-160.34 55 -159.68 55 -159 55 C-159 56.65 -159 58.3 -159 60 C-158.34 60 -157.68 60 -157 60 C-157 66.6 -157 73.2 -157 80 C-157.66 80 -158.32 80 -159 80 C-159 82.31 -159 84.62 -159 87 C-159.66 87 -160.32 87 -161 87 C-161 88.65 -161 90.3 -161 92 C-161.66 92 -162.32 92 -163 92 C-163 93.65 -163 95.3 -163 97 C-163.66 97 -164.32 97 -165 97 C-165 98.32 -165 99.64 -165 101 C-165.66 101 -166.32 101 -167 101 C-167 102.32 -167 103.64 -167 105 C-167.66 105 -168.32 105 -169 105 C-169.33 106.98 -169.66 108.96 -170 111 C-170.66 111 -171.32 111 -172 111 C-172 112.32 -172 113.64 -172 115 C-172.66 115 -173.32 115 -174 115 C-174.11214844 115.55171875 -174.22429687 116.1034375 -174.33984375 116.671875 C-175.11360773 119.40065211 -176.26817694 121.72772943 -177.5625 124.25 C-178.01753906 125.14203125 -178.47257812 126.0340625 -178.94140625 126.953125 C-179.29074219 127.62859375 -179.64007813 128.3040625 -180 129 C-180.66 129 -181.32 129 -182 129 C-182.144375 129.598125 -182.28875 130.19625 -182.4375 130.8125 C-182.8872439 132.56150404 -183.42892341 134.28677023 -184 136 C-184.66 136 -185.32 136 -186 136 C-186.103125 136.53625 -186.20625 137.0725 -186.3125 137.625 C-187.18092697 140.62502044 -188.55620296 143.2379535 -190 146 C-190.66 146 -191.32 146 -192 146 C-192.144375 146.598125 -192.28875 147.19625 -192.4375 147.8125 C-192.8872439 149.56150404 -193.42892341 151.28677023 -194 153 C-194.66 153 -195.32 153 -196 153 C-196.144375 153.61875 -196.28875 154.2375 -196.4375 154.875 C-197 157 -197 157 -198 159 C-198.66 159 -199.32 159 -200 159 C-200 160.32 -200 161.64 -200 163 C-200.66 163 -201.32 163 -202 163 C-202.33 164.98 -202.66 166.96 -203 169 C-203.66 169 -204.32 169 -205 169 C-205.11214844 169.56203125 -205.22429687 170.1240625 -205.33984375 170.703125 C-206.09057339 173.31513108 -207.21167376 175.39471322 -208.5625 177.75 C-209.01753906 178.54921875 -209.47257812 179.3484375 -209.94140625 180.171875 C-210.29074219 180.77515625 -210.64007813 181.3784375 -211 182 C-211.66 182 -212.32 182 -213 182 C-213.103125 182.556875 -213.20625 183.11375 -213.3125 183.6875 C-214.14178408 186.4769101 -215.34299056 188.6139064 -217 191 C-217.66 191 -218.32 191 -219 191 C-219 192.32 -219 193.64 -219 195 C-219.66 195 -220.32 195 -221 195 C-221 195.99 -221 196.98 -221 198 C-221.66 198 -222.32 198 -223 198 C-223 198.99 -223 199.98 -223 201 C-223.66 201 -224.32 201 -225 201 C-225 201.99 -225 202.98 -225 204 C-225.66 204 -226.32 204 -227 204 C-227 204.99 -227 205.98 -227 207 C-227.66 207 -228.32 207 -229 207 C-229.144375 207.61875 -229.28875 208.2375 -229.4375 208.875 C-230 211 -230 211 -231 213 C-231.66 213 -232.32 213 -233 213 C-233.04125 213.66 -233.0825 214.32 -233.125 215 C-234.38694188 219.32665788 -236.93008609 222.71836789 -240 226 C-240.66 226 -241.32 226 -242 226 C-242 226.99 -242 227.98 -242 229 C-242.66 229 -243.32 229 -244 229 C-244.37125 230.2065625 -244.37125 230.2065625 -244.75 231.4375 C-246 234 -246 234 -248.125 234.8125 C-248.74375 234.874375 -249.3625 234.93625 -250 235 C-250 235.99 -250 236.98 -250 238 C-250.66 238 -251.32 238 -252 238 C-252.66 239.32 -253.32 240.64 -254 242 C-254.66 242 -255.32 242 -256 242 C-256 242.66 -256 243.32 -256 244 C-256.66 244 -257.32 244 -258 244 C-258 244.66 -258 245.32 -258 246 C-258.66 246 -259.32 246 -260 246 C-260 246.66 -260 247.32 -260 248 C-260.66 248 -261.32 248 -262 248 C-262 249.32 -262 250.64 -262 252 C-262.66 252 -263.32 252 -264 252 C-264 252.99 -264 253.98 -264 255 C-263.34 255 -262.68 255 -262 255 C-262 256.32 -262 257.64 -262 259 C-261.34 259 -260.68 259 -260 259 C-260 259.66 -260 260.32 -260 261 C-259.34 261 -258.68 261 -258 261 C-258 261.99 -258 262.98 -258 264 C-257.34 264 -256.68 264 -256 264 C-256 264.99 -256 265.98 -256 267 C-254.68 267.66 -253.36 268.32 -252 269 C-252 269.99 -252 270.98 -252 272 C-251.34 272 -250.68 272 -250 272 C-246 278.625 -246 278.625 -246 282 C-245.34 282 -244.68 282 -244 282 C-243.79503906 282.78246094 -243.59007812 283.56492187 -243.37890625 284.37109375 C-243.10949219 285.38300781 -242.84007812 286.39492188 -242.5625 287.4375 C-242.16224609 288.95150391 -242.16224609 288.95150391 -241.75390625 290.49609375 C-241.24021923 292.91752001 -241.24021923 292.91752001 -240 294 C-239.68076508 296.0572917 -239.48838648 298.11613521 -239.28125 300.1875 C-239.18001957 302.0167533 -239.18001957 302.0167533 -238 303 C-237.8864949 305.41584646 -237.83581757 307.80194801 -237.83203125 310.21875 C-237.82870285 310.95065552 -237.82537445 311.68256104 -237.82194519 312.43664551 C-237.81686864 313.99356456 -237.81453709 315.55049455 -237.81469727 317.10742188 C-237.8125345 319.46243 -237.79445382 321.81695136 -237.77539062 324.171875 C-237.74715256 331.6907612 -237.89461011 338.72047851 -240 346 C-240.18941162 346.68521729 -240.37882324 347.37043457 -240.57397461 348.07641602 C-241.03077161 349.72286864 -241.51222169 351.36245853 -242 353 C-242.66 353 -243.32 353 -244 353 C-243.94972656 353.70125 -243.89945312 354.4025 -243.84765625 355.125 C-244.02935221 358.55392885 -245.03086297 360.87591096 -246.4375 364 C-248.08594309 367.68199254 -249.36170934 371.00884919 -250 375 C-250.66 375 -251.32 375 -252 375 C-252 376.65 -252 378.3 -252 380 C-252.66 380 -253.32 380 -254 380 C-254 381.65 -254 383.3 -254 385 C-254.66 385 -255.32 385 -256 385 C-256.13535156 385.72316406 -256.27070313 386.44632812 -256.41015625 387.19140625 C-257.75295607 393.58526765 -259.88731218 399.82445099 -262 406 C-262.66 406 -263.32 406 -264 406 C-264 407.65 -264 409.3 -264 411 C-264.66 411 -265.32 411 -266 411 C-266.061875 412.2375 -266.12375 413.475 -266.1875 414.75 C-266.87403228 420.99744378 -269.45982999 426.31238901 -272 432 C-272.76085423 433.80797044 -273.51171973 435.62019472 -274.25 437.4375 C-274.56453125 438.19933594 -274.8790625 438.96117187 -275.203125 439.74609375 C-276.05116529 442.1447175 -276.55860308 444.49727944 -277 447 C-277.66 447 -278.32 447 -279 447 C-278.938125 448.5159375 -278.938125 448.5159375 -278.875 450.0625 C-279.00573843 454.18076052 -279.73250786 457.11830533 -281 461 C-280.34 461 -279.68 461 -279 461 C-279 461.66 -279 462.32 -279 463 C-273.63741833 465.68129083 -268.87736217 465.87501113 -263.23828125 464.16015625 C-256.33331454 461.47940447 -250.42664352 457.8540868 -244.3984375 453.57421875 C-242 452 -242 452 -240 452 C-240 451.34 -240 450.68 -240 450 C-238.68 449.67 -237.36 449.34 -236 449 C-236 448.34 -236 447.68 -236 447 C-235.34 447 -234.68 447 -234 447 C-234 446.34 -234 445.68 -234 445 C-233.34 445 -232.68 445 -232 445 C-231.34 443.68 -230.68 442.36 -230 441 C-229.34 441 -228.68 441 -228 441 C-228 440.34 -228 439.68 -228 439 C-227.34 439 -226.68 439 -226 439 C-225.87625 438.236875 -225.7525 437.47375 -225.625 436.6875 C-225 434 -225 434 -223 431 C-222.34 431 -221.68 431 -221 431 C-220.71125 430.2575 -220.4225 429.515 -220.125 428.75 C-219.17697356 426.43260203 -218.15154089 424.22082885 -217 422 C-216.34 422 -215.68 422 -215 422 C-215 421.01 -215 420.02 -215 419 C-214.34 419 -213.68 419 -213 419 C-212.855625 418.401875 -212.71125 417.80375 -212.5625 417.1875 C-212.1127561 415.43849596 -211.57107659 413.71322977 -211 412 C-210.34 412 -209.68 412 -209 412 C-209 410.68 -209 409.36 -209 408 C-208.34 408 -207.68 408 -207 408 C-207 406.68 -207 405.36 -207 404 C-206.34 404 -205.68 404 -205 404 C-205 402.68 -205 401.36 -205 400 C-204.34 400 -203.68 400 -203 400 C-203 398.68 -203 397.36 -203 396 C-202.34 396 -201.68 396 -201 396 C-201 394.68 -201 393.36 -201 392 C-200.34 392 -199.68 392 -199 392 C-198.855625 391.2575 -198.71125 390.515 -198.5625 389.75 C-198.09812508 387.47972261 -197.58136431 385.24240521 -197 383 C-196.34 383 -195.68 383 -195 383 C-194.67 379.7 -194.34 376.4 -194 373 C-193.34 373 -192.68 373 -192 373 C-192.04640625 372.29230469 -192.0928125 371.58460938 -192.140625 370.85546875 C-191.97736067 367.54029589 -191.09251049 365.34123601 -189.75 362.3125 C-189.29367187 361.25804687 -188.83734375 360.20359375 -188.3671875 359.1171875 C-187.69042969 357.57417969 -187.69042969 357.57417969 -187 356 C-184.82737883 350.91029306 -182.9240481 345.93262827 -181.5625 340.5625 C-180.28073934 335.57000682 -178.36004181 331.12493337 -176.0859375 326.5078125 C-174.99872836 323.99706334 -174.4344695 321.69371092 -174 319 C-173.34 319 -172.68 319 -172 319 C-172.061875 317.700625 -172.061875 317.700625 -172.125 316.375 C-171.99542279 312.87641532 -171.23980344 310.25448403 -170 307 C-169.34 307 -168.68 307 -168 307 C-168 305.35 -168 303.7 -168 302 C-167.34 302 -166.68 302 -166 302 C-166 300.35 -166 298.7 -166 297 C-165.34 297 -164.68 297 -164 297 C-164 295.02 -164 293.04 -164 291 C-163.34 291 -162.68 291 -162 291 C-161.96261719 290.34773438 -161.92523438 289.69546875 -161.88671875 289.0234375 C-161.47686285 283.57476494 -160.62722486 279.85026128 -158 275 C-157.16149112 272.48860394 -156.42568309 269.9588274 -155.6953125 267.4140625 C-154.87913393 264.58036388 -153.95442449 261.78985622 -153 259 C-152.34 259 -151.68 259 -151 259 C-151 257.02 -151 255.04 -151 253 C-150.34 253 -149.68 253 -149 253 C-149.061875 252.29875 -149.12375 251.5975 -149.1875 250.875 C-148.95631259 247.33012637 -147.63114877 245.13180564 -146 242 C-145.30092586 239.26427415 -145.30092586 239.26427415 -145 237 C-144.34 237 -143.68 237 -143 237 C-143 235.02 -143 233.04 -143 231 C-142.34 231 -141.68 231 -141 231 C-141.061875 229.948125 -141.061875 229.948125 -141.125 228.875 C-140.98331668 225.61628372 -140.13265314 223.0440053 -139 220 C-138.34 220 -137.68 220 -137 220 C-137 218.35 -137 216.7 -137 215 C-136.34 215 -135.68 215 -135 215 C-135 213.02 -135 211.04 -135 209 C-134.34 209 -133.68 209 -133 209 C-133 207.02 -133 205.04 -133 203 C-132.34 203 -131.68 203 -131 203 C-131 201.35 -131 199.7 -131 198 C-130.34 198 -129.68 198 -129 198 C-128.96261719 197.35933594 -128.92523437 196.71867188 -128.88671875 196.05859375 C-128.45684936 190.40286117 -127.40969953 186.19012207 -125 181 C-123.92220685 177.68859026 -122.95039725 174.34998179 -122 171 C-121.34 171 -120.68 171 -120 171 C-120 169.02 -120 167.04 -120 165 C-119.34 165 -118.68 165 -118 165 C-118.0928125 163.948125 -118.0928125 163.948125 -118.1875 162.875 C-117.95631259 159.33012637 -116.63114877 157.13180564 -115 154 C-114.30092586 151.26427415 -114.30092586 151.26427415 -114 149 C-113.34 149 -112.68 149 -112 149 C-112 147.02 -112 145.04 -112 143 C-111.34 143 -110.68 143 -110 143 C-110.061875 141.948125 -110.061875 141.948125 -110.125 140.875 C-109.98331668 137.61628372 -109.13265314 135.0440053 -108 132 C-107.34 132 -106.68 132 -106 132 C-106 130.35 -106 128.7 -106 127 C-105.34 127 -104.68 127 -104 127 C-104 125.02 -104 123.04 -104 121 C-103.34 121 -102.68 121 -102 121 C-102 119.35 -102 117.7 -102 116 C-101.34 116 -100.68 116 -100 116 C-100 114.02 -100 112.04 -100 110 C-99.34 110 -98.68 110 -98 110 C-97.94392578 109.02160156 -97.94392578 109.02160156 -97.88671875 108.0234375 C-97.47686285 102.57476494 -96.62722486 98.85026128 -94 94 C-93.19110731 91.50243958 -92.47799386 88.98536267 -91.7578125 86.4609375 C-91.08645279 84.28074875 -90.30938462 82.26491823 -89.375 80.1875 C-88.17169903 77.39802957 -87.45269441 74.98778309 -87 72 C-86.34 72 -85.68 72 -85 72 C-85.0928125 70.948125 -85.0928125 70.948125 -85.1875 69.875 C-84.95636745 66.3309675 -83.6057736 64.14731626 -82 61 C-81.29241674 57.7633037 -81.29241674 57.7633037 -81 55 C-80.34 55 -79.68 55 -79 55 C-79 53.35 -79 51.7 -79 50 C-78.34 50 -77.68 50 -77 50 C-77.061875 48.948125 -77.061875 48.948125 -77.125 47.875 C-76.98331668 44.61628372 -76.13265314 42.0440053 -75 39 C-74.34 39 -73.68 39 -73 39 C-73 37.35 -73 35.7 -73 34 C-72.34 34 -71.68 34 -71 34 C-71 32.35 -71 30.7 -71 29 C-70.34 29 -69.68 29 -69 29 C-69 27.68 -69 26.36 -69 25 C-68.34 25 -67.68 25 -67 25 C-67 23.68 -67 22.36 -67 21 C-66.34 21 -65.68 21 -65 21 C-64.67 19.35 -64.34 17.7 -64 16 C-63.34 16 -62.68 16 -62 16 C-61.79375 15.443125 -61.5875 14.88625 -61.375 14.3125 C-59.42316968 11.02987629 -57.05769006 9.29326754 -54 7 C-53.34 7 -52.68 7 -52 7 C-52 6.34 -52 5.68 -52 5 C-34.44766679 -4.61643788 -18.90704189 -6.43643979 0 0 Z M60 116 C60 116.66 60 117.32 60 118 C58.1746875 118.0928125 58.1746875 118.0928125 56.3125 118.1875 C46.49985513 119.28466187 37.34902356 123.93017949 29 129 C29 129.66 29 130.32 29 131 C28.071875 131.268125 27.14375 131.53625 26.1875 131.8125 C23.01589687 132.99407764 22.22081027 133.65704517 20 136 C17.89387523 137.80812624 15.77223447 139.59623598 13.64453125 141.37890625 C13.10183594 141.91386719 12.55914063 142.44882813 12 143 C12 143.66 12 144.32 12 145 C11.34 145 10.68 145 10 145 C9.01 147.475 9.01 147.475 8 150 C7.34 150 6.68 150 6 150 C6 150.99 6 151.98 6 153 C5.34 153 4.68 153 4 153 C4 153.66 4 154.32 4 155 C3.34 155 2.68 155 2 155 C2 156.32 2 157.64 2 159 C1.34 159 0.68 159 0 159 C0 160.32 0 161.64 0 163 C-0.66 163 -1.32 163 -2 163 C-2 164.65 -2 166.3 -2 168 C-2.66 168 -3.32 168 -4 168 C-4 169.65 -4 171.3 -4 173 C-4.66 173 -5.32 173 -6 173 C-6 176.63 -6 180.26 -6 184 C-0.47747914 185.84084029 5.52893184 185.24995276 11.25 184.5 C24.21117157 182.92825863 37.76717955 183.56878401 50.0625 188.125 C57.42795604 190.75763288 65.08795095 191.46701839 72.5 188.6875 C73.325 188.130625 74.15 187.57375 75 187 C75.825 186.5875 76.65 186.175 77.5 185.75 C80.91688795 183.35817844 83.60505928 180.41546529 86 177 C86 176.34 86 175.68 86 175 C86.66 175 87.32 175 88 175 C88 174.01 88 173.02 88 172 C88.66 172 89.32 172 90 172 C90 171.34 90 170.68 90 170 C90.66 170 91.32 170 92 170 C92 168.68 92 167.36 92 166 C92.66 166 93.32 166 94 166 C96.64472478 159.71724311 96.64472478 159.71724311 97 153 C97.66 153 98.32 153 99 153 C101.46989565 144.35536523 103.18793987 133.61254142 99.83203125 125.00390625 C97.02215012 120.43303587 97.02215012 120.43303587 92.29296875 118.27734375 C91.53628906 118.18582031 90.77960938 118.09429687 90 118 C90 117.34 90 116.68 90 116 C85.35139564 115.08765709 80.84742126 114.84369607 76.125 114.875 C75.42117188 114.87693359 74.71734375 114.87886719 73.9921875 114.88085938 C69.24227807 114.92044195 64.68090661 115.2198489 60 116 Z M-42 279 C-46.39692323 285.82108243 -49.24738159 294.17365327 -51.4375 301.9375 C-52.79350396 306.71364728 -54.79185558 311.02385318 -57.01171875 315.45703125 C-58.06444601 318.16582749 -58.19121294 320.12147 -58 323 C-58.66 323 -59.32 323 -60 323 C-61.19287411 326.87684087 -62 329.91621923 -62 334 C-61.34 334 -60.68 334 -60 334 C-59.5978125 334.9590625 -59.5978125 334.9590625 -59.1875 335.9375 C-58.11332248 338.33131686 -58.11332248 338.33131686 -55 339 C-53.38975487 339.11471012 -51.77544145 339.1762774 -50.16137695 339.20532227 C-49.1805867 339.22526749 -48.19979645 339.24521271 -47.18928528 339.26576233 C-46.13295395 339.28247482 -45.07662262 339.29918732 -43.98828125 339.31640625 C-42.90491989 339.33718735 -41.82155853 339.35796844 -40.70536804 339.37937927 C-37.24114384 339.44481797 -33.7768432 339.50373353 -30.3125 339.5625 C-27.96548685 339.60569061 -25.61848147 339.64930507 -23.27148438 339.69335938 C-17.51440396 339.80049357 -11.75724733 339.90227064 -6 340 C-6 340.66 -6 341.32 -6 342 C-4.91203125 342.17015625 -3.8240625 342.3403125 -2.703125 342.515625 C5.39246521 343.83333998 13.0459388 345.39101191 20.77734375 348.23046875 C22.92297194 349.10905587 22.92297194 349.10905587 25 349 C25 349.66 25 350.32 25 351 C25.65226563 351.25394531 26.30453125 351.50789063 26.9765625 351.76953125 C31.7742207 353.65887453 36.38614193 355.69307096 41 358 C41.66 358 42.32 358 43 358 C43 358.66 43 359.32 43 360 C45.71651314 361.54429765 48.44986276 363.05601606 51.1875 364.5625 C51.95642578 365.00013672 52.72535156 365.43777344 53.51757812 365.88867188 C57.9363899 368.36001745 57.9363899 368.36001745 62.86328125 368.90234375 C65.23193783 367.98065081 65.23193783 367.98065081 68 366 C68 365.34 68 364.68 68 364 C68.66 364 69.32 364 70 364 C72.59121333 357.17108667 72.36786929 350.72340567 72.375 343.5 C72.39949219 342.19417969 72.42398438 340.88835937 72.44921875 339.54296875 C72.45308594 338.28097656 72.45695313 337.01898438 72.4609375 335.71875 C72.46915527 334.57341797 72.47737305 333.42808594 72.48583984 332.24804688 C71.88222778 328.21264244 70.62242705 326.10631727 68 323 C63.9735856 320.59336296 60.15202794 320.78063052 55.5390625 320.83984375 C54.83026947 320.84504532 54.12147644 320.85024689 53.39120483 320.85560608 C51.13558918 320.87333203 48.88043915 320.90445946 46.625 320.9375 C44.3767468 320.96527709 42.12856634 320.99001011 39.88021851 321.00868225 C37.83495359 321.02640454 35.78977946 321.0538246 33.74462891 321.08178711 C20.99007465 320.80321261 8.76563863 316.23975759 -1 308 C-1.66 308 -2.32 308 -3 308 C-3 307.01 -3 306.02 -3 305 C-4.4325584 303.4234766 -4.4325584 303.4234766 -6.3125 302 C-8.18382073 300.49352797 -9.94821598 299.05442992 -11.60546875 297.3125 C-12.9235602 295.7715451 -12.9235602 295.7715451 -15 296 C-15 295.34 -15 294.68 -15 294 C-15.66 294 -16.32 294 -17 294 C-17 293.34 -17 292.68 -17 292 C-18.83333333 289.83333333 -18.83333333 289.83333333 -21 288 C-21.66 288 -22.32 288 -23 288 C-23 287.34 -23 286.68 -23 286 C-23.66 286 -24.32 286 -25 286 C-25.2475 285.4225 -25.495 284.845 -25.75 284.25 C-27.26871823 281.51630719 -28.49725443 279.90999004 -31 278 C-35.28424216 276.79695018 -38.15944696 276.43963131 -42 279 Z M-33 419 C-35.35119399 422.52679099 -35.21443452 424.02879485 -35.125 428.1875 C-35.09792969 429.81751953 -35.09792969 429.81751953 -35.0703125 431.48046875 C-35.04710937 432.31191406 -35.02390625 433.14335937 -35 434 C-35.66 434 -36.32 434 -37 434 C-37 434.66 -37 435.32 -37 436 C-37.8353125 436.0928125 -37.8353125 436.0928125 -38.6875 436.1875 C-41.97272942 437.34176979 -43.607803 439.49388886 -46 442 C-47.05302502 442.86582057 -48.11562577 443.72012682 -49.1875 444.5625 C-51.69690756 446.73731988 -52.97074534 447.91223601 -54 451 C-54 451.99 -54 452.98 -54 454 C-54.66 454 -55.32 454 -56 454 C-56 455.32 -56 456.64 -56 458 C-56.66 458 -57.32 458 -58 458 C-58.66 460.64 -59.32 463.28 -60 466 C-59.34 466 -58.68 466 -58 466 C-58 467.32 -58 468.64 -58 470 C-56.63182703 470.82394416 -55.25505089 471.63360897 -53.875 472.4375 C-53.10929688 472.88996094 -52.34359375 473.34242188 -51.5546875 473.80859375 C-40.7854322 478.83095287 -26.22301998 476.11969349 -15 474 C-15 473.34 -15 472.68 -15 472 C-13.7625 471.855625 -12.525 471.71125 -11.25 471.5625 C-8.43495501 471.21311498 -5.7298503 470.79620634 -3 470 C-3 469.34 -3 468.68 -3 468 C-1.50339844 467.65775391 -1.50339844 467.65775391 0.0234375 467.30859375 C4.46414151 466.0380652 7.87914219 463.70058888 11.625 461.0625 C12.90818363 460.1774125 14.1920241 459.2932764 15.4765625 458.41015625 C16.07629883 457.99137207 16.67603516 457.57258789 17.29394531 457.14111328 C19 456 19 456 21.9609375 454.37109375 C22.63382813 453.91863281 23.30671875 453.46617187 24 453 C24 452.01 24 451.02 24 450 C24.66 450 25.32 450 26 450 C26 447.36 26 444.72 26 442 C25.34 442 24.68 442 24 442 C24 441.34 24 440.68 24 440 C23.34 440 22.68 440 22 440 C22 439.34 22 438.68 22 438 C21.05125 437.7525 20.1025 437.505 19.125 437.25 C15.56440032 435.82576013 15.48257341 435.28284113 14 432 C11.94999129 431.19471111 11.94999129 431.19471111 10 431 C10 430.34 10 429.68 10 429 C7.66607604 427.17093931 7.66607604 427.17093931 4.75 425.375 C3.28820312 424.42753906 3.28820312 424.42753906 1.796875 423.4609375 C-1.06500145 421.69134065 -1.06500145 421.69134065 -5 422 C-5 421.34 -5 420.68 -5 420 C-13.910074 417.47828094 -24.12450784 415.17671107 -33 419 Z " fill="#FFB34D" transform="translate(662,47)"/>
<path d="M0 0 C0.66 0 1.32 0 2 0 C2 0.66 2 1.32 2 2 C2.66 2 3.32 2 4 2 C4 2.66 4 3.32 4 4 C4.66 4 5.32 4 6 4 C6 4.66 6 5.32 6 6 C7.32 6.66 8.64 7.32 10 8 C10 8.66 10 9.32 10 10 C10.66 10 11.32 10 12 10 C12 10.99 12 11.98 12 13 C12.66 13 13.32 13 14 13 C18.60001192 19.90001788 18.74996276 26.9468285 18 35 C16.95417045 39.44970877 15.54726225 43.70267673 14 48 C13.32986814 49.9988416 12.66219074 51.99851358 12 54 C11.34 54 10.68 54 10 54 C10 55.65 10 57.3 10 59 C9.34 59 8.68 59 8 59 C7.90589844 59.67933594 7.81179688 60.35867188 7.71484375 61.05859375 C6.83576387 64.67579129 5.27005734 67.78301615 3.5625 71.0625 C3.24990234 71.67416016 2.93730469 72.28582031 2.61523438 72.91601562 C1.74759124 74.61278073 0.87399931 76.30650018 0 78 C-0.66923117 79.33204799 -1.33733231 80.66467466 -2 82 C-2.66 82 -3.32 82 -4 82 C-4 83.32 -4 84.64 -4 86 C-4.66 86 -5.32 86 -6 86 C-6 86.99 -6 87.98 -6 89 C-6.66 89 -7.32 89 -8 89 C-8 89.99 -8 90.98 -8 92 C-8.66 92 -9.32 92 -10 92 C-10 92.99 -10 93.98 -10 95 C-10.66 95 -11.32 95 -12 95 C-12.10441406 95.57234375 -12.20882812 96.1446875 -12.31640625 96.734375 C-13.11159499 99.36985768 -14.27901491 101.06031308 -15.9375 103.25 C-16.46214844 103.95640625 -16.98679687 104.6628125 -17.52734375 105.390625 C-18.25630859 106.18726563 -18.25630859 106.18726563 -19 107 C-19.66 107 -20.32 107 -21 107 C-21 107.66 -21 108.32 -21 109 C-21.66 109 -22.32 109 -23 109 C-23 109.99 -23 110.98 -23 112 C-24.32 112.33 -25.64 112.66 -27 113 C-27 113.99 -27 114.98 -27 116 C-28.32 116.33 -29.64 116.66 -31 117 C-31 117.99 -31 118.98 -31 120 C-31.61875 120.0825 -32.2375 120.165 -32.875 120.25 C-35.18346804 120.78810733 -35.18346804 120.78810733 -36 123 C-37 125 -37 125 -39.125 125.75 C-39.74375 125.8325 -40.3625 125.915 -41 126 C-41 126.66 -41 127.32 -41 128 C-41.66 128 -42.32 128 -43 128 C-43.33 128.99 -43.66 129.98 -44 131 C-46.16161165 132.59261211 -48.28579305 134.02990576 -50.5625 135.4375 C-51.19639648 135.83638428 -51.83029297 136.23526855 -52.48339844 136.64624023 C-64.29649744 144 -64.29649744 144 -68 144 C-68 144.66 -68 145.32 -68 146 C-85.02030457 153 -85.02030457 153 -91 153 C-91 153.66 -91 154.32 -91 155 C-96.38027025 156.19088986 -101.45291384 157.2919519 -107 157 C-107 157.66 -107 158.32 -107 159 C-114.81218834 160.01948593 -122.58263047 160.15485565 -130.44970703 160.13037109 C-132.49649459 160.12500918 -134.5430628 160.13034859 -136.58984375 160.13671875 C-155.70458621 160.14770689 -155.70458621 160.14770689 -160 158 C-161.87056791 157.7724985 -163.74685958 157.59037189 -165.625 157.4375 C-166.62789062 157.35371094 -167.63078125 157.26992188 -168.6640625 157.18359375 C-169.43492187 157.12300781 -170.20578125 157.06242188 -171 157 C-171 157.66 -171 158.32 -171 159 C-172.546875 159.61875 -172.546875 159.61875 -174.125 160.25 C-177.71442928 161.77168503 -180.76852046 163.82063008 -184 166 C-184.66 166 -185.32 166 -186 166 C-186.66 167.32 -187.32 168.64 -188 170 C-188.66 170 -189.32 170 -190 170 C-190 170.66 -190 171.32 -190 172 C-195.75 175 -195.75 175 -198 175 C-198 175.66 -198 176.32 -198 177 C-198.66 177 -199.32 177 -200 177 C-200 177.66 -200 178.32 -200 179 C-206.28390111 183.25210641 -213.1465396 186.75297175 -220 190 C-220.92941406 190.46148438 -221.85882812 190.92296875 -222.81640625 191.3984375 C-231.33783785 195.51800075 -239.93244789 198.40138572 -249 201 C-250.26199219 201.37253906 -251.52398438 201.74507812 -252.82421875 202.12890625 C-260.58997926 204.32798786 -268.14900418 205.71940315 -276.1484375 206.60546875 C-278.89421707 206.69304203 -278.89421707 206.69304203 -280 208 C-295.84123317 210.38945975 -314.15876683 210.38945975 -330 208 C-330.33 207.67 -330.66 207.34 -331 207 C-333.00828428 206.68547505 -335.01770746 206.37697241 -337.03149414 206.09985352 C-356.50449969 203.40815708 -376.55881556 197.05063217 -393 186 C-393 185.34 -393 184.68 -393 184 C-393.94875 183.690625 -394.8975 183.38125 -395.875 183.0625 C-399 182 -399 182 -401 181 C-401 180.34 -401 179.68 -401 179 C-401.763125 178.71125 -402.52625 178.4225 -403.3125 178.125 C-406 177 -406 177 -409 175 C-409 174.34 -409 173.68 -409 173 C-413.00996859 170.92587831 -416.15394977 169.87179637 -420.6875 169.9375 C-421.49574219 169.94652344 -422.30398438 169.95554687 -423.13671875 169.96484375 C-423.75160156 169.97644531 -424.36648438 169.98804688 -425 170 C-425 170.99 -425 171.98 -425 173 C-425.66 173 -426.32 173 -427 173 C-427.268125 173.886875 -427.53625 174.77375 -427.8125 175.6875 C-428.9250635 178.7909666 -430.10195778 181.31110685 -432 184 C-432.66 184 -433.32 184 -434 184 C-434.103125 184.5775 -434.20625 185.155 -434.3125 185.75 C-435.10896465 188.35661158 -436.19065277 189.9735311 -438 192 C-438.66 192 -439.32 192 -440 192 C-440 192.66 -440 193.32 -440 194 C-440.66 194 -441.32 194 -442 194 C-442 194.66 -442 195.32 -442 196 C-443.32 196.33 -444.64 196.66 -446 197 C-446 197.66 -446 198.32 -446 199 C-448.97 199.99 -448.97 199.99 -452 201 C-452 201.66 -452 202.32 -452 203 C-452.92683594 203.27714844 -453.85367188 203.55429687 -454.80859375 203.83984375 C-456.00613281 204.20207031 -457.20367187 204.56429687 -458.4375 204.9375 C-459.63246094 205.29714844 -460.82742188 205.65679688 -462.05859375 206.02734375 C-464.85867545 206.70889142 -464.85867545 206.70889142 -466 208 C-479.1024945 209.14016001 -489.22088885 206.23936067 -500 199 C-507.54482644 194.06069625 -514.65577826 194.03999678 -523.4140625 195.61328125 C-527.93398565 196.62636747 -532.37028816 197.81418339 -536.8125 199.125 C-562.01386622 206.0430221 -591.73386781 202.19175163 -616 194 C-616 193.34 -616 192.68 -616 192 C-618.64 191.34 -621.28 190.68 -624 190 C-624 189.34 -624 188.68 -624 188 C-625.98 187.34 -627.96 186.68 -630 186 C-630 185.34 -630 184.68 -630 184 C-631.299375 183.62875 -631.299375 183.62875 -632.625 183.25 C-636.22930787 181.91507116 -638.97975979 180.37304588 -642 178 C-642 177.01 -642 176.02 -642 175 C-642.99 174.67 -643.98 174.34 -645 174 C-645 173.34 -645 172.68 -645 172 C-645.66 172 -646.32 172 -647 172 C-647 171.34 -647 170.68 -647 170 C-647.66 169.67 -648.32 169.34 -649 169 C-647.68 169 -646.36 169 -645 169 C-645 169.66 -645 170.32 -645 171 C-643.68 171.33 -642.36 171.66 -641 172 C-641 172.66 -641 173.32 -641 174 C-639.865625 174.268125 -638.73125 174.53625 -637.5625 174.8125 C-632.15579995 176.16891773 -626.80000143 177.77499937 -621.6875 180.01171875 C-603.660555 187.58866907 -574.88660726 188.27880348 -556.125 183 C-550.85650451 181.54736956 -545.43293084 181.34408562 -540 181 C-540 180.34 -540 179.68 -540 179 C-537.73291675 178.1344953 -535.46224921 177.28240685 -533.1875 176.4375 C-532.54490234 176.19064453 -531.90230469 175.94378906 -531.24023438 175.68945312 C-526.33984375 173.88671875 -526.33984375 173.88671875 -523 175 C-521.45703125 176.63671875 -521.45703125 176.63671875 -519.8125 178.6875 C-513.46338538 186.08594528 -507.84363281 190.16848816 -498 191 C-496.98752197 191.09764648 -496.98752197 191.09764648 -495.95458984 191.19726562 C-483.05367761 192.3032975 -473.84340541 190.05583696 -463 183 C-462.39099854 182.6066748 -461.78199707 182.21334961 -461.15454102 181.80810547 C-449.13109674 173.66791962 -441.74677877 159.00857174 -439 145 C-434.85904454 146.57843479 -432.3989656 149.62106285 -429.5625 152.875 C-424.86292859 158.2329025 -420.17042035 162.34125717 -414 166 C-412.66470993 167.03915719 -411.33149614 168.08098598 -410 169.125 C-397.92033753 177.60952483 -383.18504665 182.38528784 -368.98046875 185.9296875 C-366.26120232 186.60999566 -363.99039221 187.41859142 -361.36328125 188.5078125 C-349.56241964 192.97650021 -336.27854407 192.34385943 -323.85913086 192.31567383 C-320.9389144 192.31250154 -318.01970237 192.33610213 -315.09960938 192.36132812 C-306.07189751 192.3919403 -297.69309133 192.20124192 -288.93017578 189.77001953 C-285.81695781 188.95189843 -282.78230396 188.52802381 -279.58984375 188.12890625 C-272.20483832 187.054865 -265.51488152 184.57873253 -258.5625 181.9375 C-256.12801347 181.02536711 -253.69186855 180.11764545 -251.25390625 179.21484375 C-250.19502197 178.81386475 -249.1361377 178.41288574 -248.04516602 177.99975586 C-245.02882617 177.0094639 -242.14026902 176.43517717 -239 176 C-239 175.34 -239 174.68 -239 174 C-237.5459375 173.32517578 -237.5459375 173.32517578 -236.0625 172.63671875 C-219.64291368 164.83333052 -203.8480031 154.53270154 -191.359375 141.17578125 C-189 139 -189 139 -185.4375 139.0625 C-182 140 -182 140 -180.19921875 141.01953125 C-165.83457275 147.42366295 -140.57081054 143.69699976 -125.3125 142.1875 C-124.56572998 142.11748779 -123.81895996 142.04747559 -123.04956055 141.9753418 C-118.23659372 141.42040379 -114.38250629 140.00822504 -110 138 C-107.94711448 137.34410953 -105.88430022 136.71844341 -103.8125 136.125 C-98.23986919 134.46028099 -92.96978299 132.40829657 -87.65625 130.05078125 C-85.09751315 129.03857505 -82.70903074 128.44659746 -80 128 C-80 127.34 -80 126.68 -80 126 C-79.175 125.57332031 -78.35 125.14664063 -77.5 124.70703125 C-38.04484051 103.35016479 -14.75055048 65.13471965 0 24 C0.79314436 21.26483323 1.12803792 18.8414041 1.1328125 15.99609375 C1.13410156 15.25552734 1.13539063 14.51496094 1.13671875 13.75195312 C1.13285156 12.98818359 1.12898437 12.22441406 1.125 11.4375 C1.12886719 10.66986328 1.13273438 9.90222656 1.13671875 9.11132812 C1.130981 5.82072861 1.04747031 3.14241093 0 0 Z " fill="#FFE0B6" transform="translate(953,407)"/>
<path d="M0 0 C0.99 0.495 0.99 0.495 2 1 C2 1.66 2 2.32 2 3 C2.598125 3.268125 3.19625 3.53625 3.8125 3.8125 C6.01819033 5.00987475 7.43583187 6.04478984 9 8 C9 8.99 9 9.98 9 11 C9.66 11 10.32 11 11 11 C11 11.66 11 12.32 11 13 C11.66 13 12.32 13 13 13 C13 13.99 13 14.98 13 16 C13.66 16 14.32 16 15 16 C15 17.32 15 18.64 15 20 C15.66 20 16.32 20 17 20 C17 21.65 17 23.3 17 25 C17.66 25 18.32 25 19 25 C19 31.6 19 38.2 19 45 C18.34 45 17.68 45 17 45 C17 47.31 17 49.62 17 52 C16.34 52 15.68 52 15 52 C15 53.65 15 55.3 15 57 C14.34 57 13.68 57 13 57 C13 58.65 13 60.3 13 62 C12.34 62 11.68 62 11 62 C11 63.32 11 64.64 11 66 C10.34 66 9.68 66 9 66 C9 67.32 9 68.64 9 70 C8.34 70 7.68 70 7 70 C6.67 71.98 6.34 73.96 6 76 C5.34 76 4.68 76 4 76 C4 77.32 4 78.64 4 80 C3.34 80 2.68 80 2 80 C1.88785156 80.55171875 1.77570313 81.1034375 1.66015625 81.671875 C0.88639227 84.40065211 -0.26817694 86.72772943 -1.5625 89.25 C-2.01753906 90.14203125 -2.47257812 91.0340625 -2.94140625 91.953125 C-3.29074219 92.62859375 -3.64007813 93.3040625 -4 94 C-4.66 94 -5.32 94 -6 94 C-6.2165625 94.8971875 -6.2165625 94.8971875 -6.4375 95.8125 C-6.8872439 97.56150404 -7.42892341 99.28677023 -8 101 C-8.66 101 -9.32 101 -10 101 C-10.103125 101.53625 -10.20625 102.0725 -10.3125 102.625 C-11.18092697 105.62502044 -12.55620296 108.2379535 -14 111 C-14.66 111 -15.32 111 -16 111 C-16.2165625 111.8971875 -16.2165625 111.8971875 -16.4375 112.8125 C-16.8872439 114.56150404 -17.42892341 116.28677023 -18 118 C-18.66 118 -19.32 118 -20 118 C-20.144375 118.61875 -20.28875 119.2375 -20.4375 119.875 C-21 122 -21 122 -22 124 C-22.66 124 -23.32 124 -24 124 C-24 125.32 -24 126.64 -24 128 C-24.66 128 -25.32 128 -26 128 C-26.495 130.97 -26.495 130.97 -27 134 C-27.66 134 -28.32 134 -29 134 C-29.16822266 134.84304687 -29.16822266 134.84304687 -29.33984375 135.703125 C-30.09057339 138.31513108 -31.21167376 140.39471322 -32.5625 142.75 C-33.01753906 143.54921875 -33.47257812 144.3484375 -33.94140625 145.171875 C-34.29074219 145.77515625 -34.64007813 146.3784375 -35 147 C-35.66 147 -36.32 147 -37 147 C-37.103125 147.556875 -37.20625 148.11375 -37.3125 148.6875 C-38.14178408 151.4769101 -39.34299056 153.6139064 -41 156 C-41.66 156 -42.32 156 -43 156 C-43 157.32 -43 158.64 -43 160 C-43.66 160 -44.32 160 -45 160 C-45 160.99 -45 161.98 -45 163 C-45.66 163 -46.32 163 -47 163 C-47 163.99 -47 164.98 -47 166 C-47.66 166 -48.32 166 -49 166 C-49 166.99 -49 167.98 -49 169 C-49.66 169 -50.32 169 -51 169 C-51 169.99 -51 170.98 -51 172 C-51.66 172 -52.32 172 -53 172 C-53.144375 172.61875 -53.28875 173.2375 -53.4375 173.875 C-54 176 -54 176 -55 178 C-55.66 178 -56.32 178 -57 178 C-57.04125 178.66 -57.0825 179.32 -57.125 180 C-58.38694188 184.32665788 -60.93008609 187.71836789 -64 191 C-64.66 191 -65.32 191 -66 191 C-66 191.99 -66 192.98 -66 194 C-66.66 194 -67.32 194 -68 194 C-68.2475 194.804375 -68.495 195.60875 -68.75 196.4375 C-70 199 -70 199 -72.125 199.8125 C-72.74375 199.874375 -73.3625 199.93625 -74 200 C-74 200.99 -74 201.98 -74 203 C-74.66 203 -75.32 203 -76 203 C-76.66 204.32 -77.32 205.64 -78 207 C-78.66 207 -79.32 207 -80 207 C-80 207.66 -80 208.32 -80 209 C-80.66 209 -81.32 209 -82 209 C-82 209.66 -82 210.32 -82 211 C-82.66 211 -83.32 211 -84 211 C-84 211.66 -84 212.32 -84 213 C-84.66 213 -85.32 213 -86 213 C-86 214.32 -86 215.64 -86 217 C-86.66 217 -87.32 217 -88 217 C-88 217.99 -88 218.98 -88 220 C-87.34 220 -86.68 220 -86 220 C-86 221.32 -86 222.64 -86 224 C-85.34 224 -84.68 224 -84 224 C-84 224.66 -84 225.32 -84 226 C-83.34 226 -82.68 226 -82 226 C-82 226.99 -82 227.98 -82 229 C-81.34 229 -80.68 229 -80 229 C-80 229.99 -80 230.98 -80 232 C-78.68 232.66 -77.36 233.32 -76 234 C-76 234.99 -76 235.98 -76 237 C-75.34 237 -74.68 237 -74 237 C-70 243.625 -70 243.625 -70 247 C-69.34 247 -68.68 247 -68 247 C-67.69255859 248.17369141 -67.69255859 248.17369141 -67.37890625 249.37109375 C-67.10949219 250.38300781 -66.84007812 251.39492188 -66.5625 252.4375 C-66.29566406 253.44683594 -66.02882813 254.45617187 -65.75390625 255.49609375 C-65.24021923 257.91752001 -65.24021923 257.91752001 -64 259 C-63.68076508 261.0572917 -63.48838648 263.11613521 -63.28125 265.1875 C-63.18001957 267.0167533 -63.18001957 267.0167533 -62 268 C-61.8864949 270.41584646 -61.83581757 272.80194801 -61.83203125 275.21875 C-61.82703865 276.31660828 -61.82703865 276.31660828 -61.82194519 277.43664551 C-61.81686864 278.99356456 -61.81453709 280.55049455 -61.81469727 282.10742188 C-61.8125345 284.46243 -61.79445382 286.81695136 -61.77539062 289.171875 C-61.74715256 296.6907612 -61.89461011 303.72047851 -64 311 C-64.18941162 311.68521729 -64.37882324 312.37043457 -64.57397461 313.07641602 C-65.03077161 314.72286864 -65.51222169 316.36245853 -66 318 C-66.66 318 -67.32 318 -68 318 C-67.94972656 318.70125 -67.89945312 319.4025 -67.84765625 320.125 C-68.02935221 323.55392885 -69.03086297 325.87591096 -70.4375 329 C-72.08594309 332.68199254 -73.36170934 336.00884919 -74 340 C-74.66 340 -75.32 340 -76 340 C-76 341.65 -76 343.3 -76 345 C-76.66 345 -77.32 345 -78 345 C-78 346.65 -78 348.3 -78 350 C-78.66 350 -79.32 350 -80 350 C-80.13535156 350.72316406 -80.27070313 351.44632812 -80.41015625 352.19140625 C-81.75295607 358.58526765 -83.88731218 364.82445099 -86 371 C-86.66 371 -87.32 371 -88 371 C-88 372.65 -88 374.3 -88 376 C-88.66 376 -89.32 376 -90 376 C-90.061875 377.2375 -90.12375 378.475 -90.1875 379.75 C-90.87403228 385.99744378 -93.45982999 391.31238901 -96 397 C-96.76085423 398.80797044 -97.51171973 400.62019472 -98.25 402.4375 C-98.56453125 403.19933594 -98.8790625 403.96117187 -99.203125 404.74609375 C-100.05116529 407.1447175 -100.55860308 409.49727944 -101 412 C-101.66 412 -102.32 412 -103 412 C-102.95875 413.010625 -102.9175 414.02125 -102.875 415.0625 C-103.00573843 419.18076052 -103.73250786 422.11830533 -105 426 C-104.34 426 -103.68 426 -103 426 C-103 426.66 -103 427.32 -103 428 C-102.21625 428.309375 -101.4325 428.61875 -100.625 428.9375 C-98 430 -98 430 -96 431 C-96 431.66 -96 432.32 -96 433 C-103.35421938 433.33093987 -109.37761553 433.4294491 -116 430 C-120.2186191 425.67321117 -121.20290778 422.0537852 -121.4375 416.125 C-121.33275312 409.98796954 -120.36373679 404.66683714 -118.63671875 398.7890625 C-118.37674103 397.89370789 -118.11676331 396.99835327 -117.84890747 396.0758667 C-114.38777679 384.51755726 -110.08135483 373.25632629 -105.79492188 361.984375 C-104.6007822 358.84380407 -103.41400265 355.70068696 -102.2318325 352.55560684 C-101.08248302 349.49930885 -99.92802612 346.44494693 -98.7734375 343.390625 C-98.3535556 342.27802307 -97.93367371 341.16542114 -97.50106812 340.019104 C-95.42772437 334.57302732 -93.27471189 329.19969039 -90.83840942 323.90507507 C-89.49596464 320.8547061 -88.51189162 317.73833552 -87.5 314.5625 C-86.1399125 310.32259789 -84.69652903 306.19215451 -82.875 302.125 C-74.94841809 282.37298897 -74.73581576 255.54635826 -82.87792969 235.87939453 C-88.07569776 224.17779331 -94.98189054 210.20414849 -106 203 C-104.44081851 198.98534107 -101.6051605 196.63010518 -98.4375 193.875 C-82.60345876 179.64960112 -71.12494698 162.33117951 -60.29541016 144.15087891 C-58.64791069 141.41539637 -56.94644158 138.71642741 -55.23828125 136.01855469 C-49.77223115 127.38409227 -44.63830473 118.57685215 -39.55859375 109.7109375 C-37.89206449 106.81226254 -36.21277263 103.92125154 -34.53125 101.03125 C-25.72001601 85.86623354 -17.15924811 70.5776884 -8.74633789 55.18896484 C-7.59248486 53.08192888 -6.43291325 50.97801331 -5.26733398 48.87744141 C-4.73309814 47.91112793 -4.1988623 46.94481445 -3.6484375 45.94921875 C-3.17970215 45.10576904 -2.7109668 44.26231934 -2.22802734 43.39331055 C3.7524557 31.73790791 5.28577169 16.59840438 1.5 4.0625 C1.02165118 2.7005346 0.53066164 1.34244761 0 0 Z " fill="#FFE0B7" transform="translate(486,82)"/>
<path d="M0 0 C3.60585177 1.20195059 3.90846981 2.08186161 5.8125 5.25 C12.31038102 15.24187544 21.86129254 18.66122927 33 22 C48.53902257 24.96254428 64.33069456 24.33465272 78.5 17.25 C81 16 81 16 85 16 C85 15.34 85 14.68 85 14 C87.44971624 12.77514188 89.14234461 12.83277192 91.875 12.8125 C93.17050781 12.79123047 93.17050781 12.79123047 94.4921875 12.76953125 C97.23720426 13.02179915 98.72950534 13.44473516 101 15 C102.44921875 17.05859375 102.44921875 17.05859375 103.6875 19.4375 C104.10386719 20.21996094 104.52023437 21.00242187 104.94921875 21.80859375 C106.85591381 25.78500983 107.10945693 28.82050595 107.0625 33.1875 C107.05347656 34.27417969 107.04445313 35.36085938 107.03515625 36.48046875 C107.01775391 37.72763672 107.01775391 37.72763672 107 39 C106.67 38.01 106.34 37.02 106 36 C98.77199679 32.81967859 88.29155007 35.41635758 81.2265625 38.0234375 C77.28389556 39.21673863 73.59790726 39.53988465 69.5 39.75 C68.7177002 39.79310303 67.93540039 39.83620605 67.12939453 39.88061523 C59.90168794 40.1809741 53.1081336 39.38277197 46 38 C46 37.34 46 36.68 46 36 C44.7625 35.87625 43.525 35.7525 42.25 35.625 C39.1237803 35.24253695 36.71120763 34.69450477 34 33 C34 32.34 34 31.68 34 31 C32.02 30.34 30.04 29.68 28 29 C28 28.34 28 27.68 28 27 C26.08416353 26.8041991 24.16727461 26.61867786 22.25 26.4375 C21.18265625 26.33308594 20.1153125 26.22867187 19.015625 26.12109375 C16.35858796 26.01439926 14.50039428 26.18069605 12 27 C12 28.32 12 29.64 12 31 C11.34 31 10.68 31 10 31 C10 32.32 10 33.64 10 35 C9.34 35 8.68 35 8 35 C7.96261719 35.56847656 7.92523438 36.13695312 7.88671875 36.72265625 C7.43056042 42.0802806 6.21602627 46.05655678 4 51 C2.90750224 54.64330702 1.93967756 58.31459792 1 62 C0.34 62 -0.32 62 -1 62 C-0.938125 62.680625 -0.87625 63.36125 -0.8125 64.0625 C-1.05276293 67.82661927 -2.46919726 70.57100187 -4 74 C-4.69140522 76.77888613 -4.69140522 76.77888613 -5 79 C-5.66 79 -6.32 79 -7 79 C-6.95875 79.70125 -6.9175 80.4025 -6.875 81.125 C-7.01668332 84.38371628 -7.86734686 86.9559947 -9 90 C-9.66 90 -10.32 90 -11 90 C-10.95875 90.70125 -10.9175 91.4025 -10.875 92.125 C-11.01668332 95.38371628 -11.86734686 97.9559947 -13 101 C-13.66 101 -14.32 101 -15 101 C-14.95875 101.680625 -14.9175 102.36125 -14.875 103.0625 C-15.02549965 106.59924168 -15.94375853 109.63323033 -17 113 C-17.66 113 -18.32 113 -19 113 C-19 114.98 -19 116.96 -19 119 C-19.66 119 -20.32 119 -21 119 C-21 120.65 -21 122.3 -21 124 C-21.66 124 -22.32 124 -23 124 C-23.05607422 124.96099609 -23.05607422 124.96099609 -23.11328125 125.94140625 C-23.54761159 131.65583091 -24.56962989 135.83546352 -27 141 C-27.69140522 143.77888613 -27.69140522 143.77888613 -28 146 C-28.66 146 -29.32 146 -30 146 C-29.938125 146.680625 -29.87625 147.36125 -29.8125 148.0625 C-30.00623503 151.09768216 -30.86088845 153.15511043 -32.1328125 155.88671875 C-33.86573881 160.10975089 -34.87397828 164.5837588 -36 169 C-36.66 169 -37.32 169 -38 169 C-37.938125 169.680625 -37.87625 170.36125 -37.8125 171.0625 C-38.05276293 174.82661927 -39.46919726 177.57100187 -41 181 C-41.69140522 183.77888613 -41.69140522 183.77888613 -42 186 C-42.66 186 -43.32 186 -44 186 C-44 187.65 -44 189.3 -44 191 C-44.66 191 -45.32 191 -46 191 C-45.95875 191.680625 -45.9175 192.36125 -45.875 193.0625 C-46.02549965 196.59924168 -46.94375853 199.63323033 -48 203 C-48.66 203 -49.32 203 -50 203 C-49.95875 203.680625 -49.9175 204.36125 -49.875 205.0625 C-50.02549965 208.59924168 -50.94375853 211.63323033 -52 215 C-52.66 215 -53.32 215 -54 215 C-54 216.65 -54 218.3 -54 220 C-54.66 220 -55.32 220 -56 220 C-56.01417969 220.60585938 -56.02835937 221.21171875 -56.04296875 221.8359375 C-56.39002078 227.93279754 -57.80664102 232.25194819 -60.72265625 237.59375 C-62.5083662 240.95765621 -63.73730575 244.41129003 -65 248 C-65.66 248 -66.32 248 -67 248 C-67 248.99 -67 249.98 -67 251 C-67.66 251 -68.32 251 -69 251 C-69 251.99 -69 252.98 -69 254 C-69.66 254 -70.32 254 -71 254 C-71.66 255.65 -72.32 257.3 -73 259 C-73.66 259 -74.32 259 -75 259 C-75 259.66 -75 260.32 -75 261 C-75.66 261 -76.32 261 -77 261 C-77.66 262.32 -78.32 263.64 -79 265 C-79.66 265 -80.32 265 -81 265 C-81 265.66 -81 266.32 -81 267 C-82.4540625 267.4021875 -82.4540625 267.4021875 -83.9375 267.8125 C-84.948125 268.204375 -85.95875 268.59625 -87 269 C-87.33 269.99 -87.66 270.98 -88 272 C-90.60242414 273.64820195 -91.86248779 274 -95 274 C-95 274.66 -95 275.32 -95 276 C-101.11898884 277.77762292 -106.64199642 278.33658335 -113 278.3125 C-114.27617188 278.33666992 -114.27617188 278.33666992 -115.578125 278.36132812 C-126.3045954 278.36955395 -136.28971657 273.65946548 -144.125 266.3125 C-146 264 -146 264 -146 261 C-147.32 260.34 -148.64 259.68 -150 259 C-146.81870086 259.46555597 -143.85794371 260.04453283 -140.78515625 261.0078125 C-128.06902438 264.34104005 -116.37185835 262.11745059 -105 256 C-83.79075156 243.3050412 -76.50724918 221.3170337 -68.9375 199.125 C-68.34646001 197.40989523 -67.75466538 195.69505033 -67.16210938 193.98046875 C-65.99398695 190.59870878 -64.82974535 187.21564799 -63.66772461 183.83178711 C-62.13660028 179.38284837 -60.57364413 174.94576406 -59 170.51171875 C-55.60401098 160.93213914 -52.33419852 151.3100898 -49.0625 141.6875 C-45.57331977 131.42651106 -42.07225959 121.17091282 -38.48046875 110.9453125 C-35.30208056 101.89653941 -32.20121605 92.8226803 -29.11752319 83.74127197 C-24.13969123 69.08777585 -19.07046291 54.4728231 -13.85498047 39.90234375 C-10.33871534 30.04468995 -6.99526861 20.13805982 -3.72729492 10.19580078 C-3.20872925 8.61968018 -3.20872925 8.61968018 -2.6796875 7.01171875 C-2.37788574 6.08834717 -2.07608398 5.16497559 -1.76513672 4.21362305 C-1 2 -1 2 0 0 Z " fill="#FFE0B6" transform="translate(196,330)"/>
<path d="M0 0 C0.66 0 1.32 0 2 0 C2 0.66 2 1.32 2 2 C2.66 2 3.32 2 4 2 C4 2.66 4 3.32 4 4 C4.66 4 5.32 4 6 4 C6 4.66 6 5.32 6 6 C6.66 6 7.32 6 8 6 C8 6.99 8 7.98 8 9 C8.66 9 9.32 9 10 9 C11.53746159 10.92711296 12.93559955 12.83705174 14.3125 14.875 C14.71549316 15.46780762 15.11848633 16.06061523 15.53369141 16.67138672 C22.87857928 27.65470073 27.6598244 38.58357045 27 52 C27.66 52 28.32 52 29 52 C29 64.87 29 77.74 29 91 C28.34 91 27.68 91 27 91 C27.01160156 91.64066406 27.02320313 92.28132813 27.03515625 92.94140625 C27.1104037 100.15441195 26.90498479 106.38550849 23.82421875 113.04296875 C22.50594645 116.17308449 21.63912974 119.42884681 20.6953125 122.6875 C19.94195306 125.19305498 19.04024318 127.59943881 18 130 C17.34 130 16.68 130 16 130 C15.88785156 130.70511719 15.77570313 131.41023437 15.66015625 132.13671875 C14.93685092 135.27389512 13.80542309 137.90127906 12.4375 140.8125 C11.98246094 141.78832031 11.52742187 142.76414063 11.05859375 143.76953125 C10.53458984 144.87361328 10.53458984 144.87361328 10 146 C9.34 146 8.68 146 8 146 C7.855625 146.61875 7.71125 147.2375 7.5625 147.875 C7 150 7 150 6 152 C5.34 152 4.68 152 4 152 C4 153.32 4 154.64 4 156 C3.34 156 2.68 156 2 156 C2 156.99 2 157.98 2 159 C1.34 159 0.68 159 0 159 C-0.66 160.98 -1.32 162.96 -2 165 C-2.66 165 -3.32 165 -4 165 C-4.0825 165.556875 -4.165 166.11375 -4.25 166.6875 C-5.23895541 169.73677919 -6.84757466 171.65189963 -9 174 C-9.66 174 -10.32 174 -11 174 C-11.66 175.32 -12.32 176.64 -13 178 C-13.66 178 -14.32 178 -15 178 C-15.66 179.32 -16.32 180.64 -17 182 C-17.66 182 -18.32 182 -19 182 C-19.66 183.32 -20.32 184.64 -21 186 C-21.66 186 -22.32 186 -23 186 C-23 186.66 -23 187.32 -23 188 C-23.66 188 -24.32 188 -25 188 C-25 188.66 -25 189.32 -25 190 C-26.32 190.33 -27.64 190.66 -29 191 C-29 191.66 -29 192.32 -29 193 C-29.66 193 -30.32 193 -31 193 C-31 193.66 -31 194.32 -31 195 C-31.66 195 -32.32 195 -33 195 C-33 195.66 -33 196.32 -33 197 C-33.66 197 -34.32 197 -35 197 C-35 197.99 -35 198.98 -35 200 C-35.66 200 -36.32 200 -37 200 C-37 200.99 -37 201.98 -37 203 C-36.34 203 -35.68 203 -35 203 C-35 204.32 -35 205.64 -35 207 C-34.34 207 -33.68 207 -33 207 C-33 207.99 -33 208.98 -33 210 C-32.34 210 -31.68 210 -31 210 C-31 210.66 -31 211.32 -31 212 C-30.34 212 -29.68 212 -29 212 C-29 212.99 -29 213.98 -29 215 C-28.34 215 -27.68 215 -27 215 C-27 215.66 -27 216.32 -27 217 C-26.34 217 -25.68 217 -25 217 C-25 217.99 -25 218.98 -25 220 C-24.34 220 -23.68 220 -23 220 C-23 221.32 -23 222.64 -23 224 C-22.34 224 -21.68 224 -21 224 C-21 224.99 -21 225.98 -21 227 C-20.34 227 -19.68 227 -19 227 C-18.32332002 228.24460783 -17.65905281 229.49596896 -17 230.75 C-16.62875 231.44609375 -16.2575 232.1421875 -15.875 232.859375 C-15 235 -15 235 -15 239 C-14.34 239 -13.68 239 -13 239 C-12.81824219 239.6290625 -12.63648438 240.258125 -12.44921875 240.90625 C-11.2277835 245.0653936 -9.98149202 249.15939933 -8.375 253.1875 C-6.98731448 256.74344416 -6.46430783 260.20815274 -6 264 C-5.67 264.33 -5.34 264.66 -5 265 C-3.47724677 273.18211773 -3.84682915 281.70267565 -3.86962891 289.99389648 C-3.87496509 292.29743098 -3.86966834 294.60076846 -3.86328125 296.90429688 C-3.85073729 321.48550821 -3.85073729 321.48550821 -7 333 C-7.33 333.33 -7.66 333.66 -8 334 C-8.26328957 335.97467176 -8.5225939 337.9501174 -8.74609375 339.9296875 C-9.03874875 342.31595134 -9.51539951 344.64622618 -10 347 C-10 347.66 -10 348.32 -10 349 C-7.36 348.67 -4.72 348.34 -2 348 C-3.62339805 349.70884005 -5.29319053 351.37446717 -7 353 C-7.66 353 -8.32 353 -9 353 C-9.33 353.99 -9.66 354.98 -10 356 C-12.625 357.0625 -12.625 357.0625 -16 358 C-19.98131092 359.13006642 -23.87681457 360.29412179 -27.75 361.75 C-32.25458609 363.29610098 -36.26528506 363.22546262 -41 363 C-39.76733994 358.95787615 -38.20877662 355.23301965 -36.33496094 351.44702148 C-18.47787653 315.25956319 -13.04915571 270.74713993 -26.0625 232 C-31.866186 215.92357125 -40.08389347 201.87025239 -50.83007812 188.62133789 C-52.12078924 186.83260406 -53.06273366 184.99331442 -54 183 C-52.47632813 181.80117188 -52.47632813 181.80117188 -50.921875 180.578125 C-18.2598818 154.63901888 3.9543955 120.27163197 12 79 C12.36738281 77.23076172 12.36738281 77.23076172 12.7421875 75.42578125 C17.5381089 49.24530624 11.8248992 23.41125576 0 0 Z " fill="#FFE0B7" transform="translate(850,112)"/>
<path d="M0 0 C5.09679141 3.63521152 9.73611345 8.20966536 12.0625 14.125 C11.7325 15.115 11.4025 16.105 11.0625 17.125 C10.485 16.320625 9.9075 15.51625 9.3125 14.6875 C7.08123107 12.14633261 6.31793229 11.47379632 3.0625 11.125 C3.0625 10.465 3.0625 9.805 3.0625 9.125 C-6.8375 9.125 -16.7375 9.125 -26.9375 9.125 C-26.9375 9.785 -26.9375 10.445 -26.9375 11.125 C-27.6903125 11.24875 -28.443125 11.3725 -29.21875 11.5 C-37.91887374 13.18934442 -44.92271264 16.3376277 -52.69921875 20.48046875 C-55.9375 22.125 -55.9375 22.125 -57.9375 22.125 C-57.9375 22.785 -57.9375 23.445 -57.9375 24.125 C-58.906875 24.393125 -59.87625 24.66125 -60.875 24.9375 C-61.885625 25.329375 -62.89625 25.72125 -63.9375 26.125 C-64.2675 27.115 -64.5975 28.105 -64.9375 29.125 C-66.26297859 29.80715007 -67.59736503 30.47211373 -68.9375 31.125 C-70.60208509 32.83257823 -70.60208509 32.83257823 -72.0625 34.75 C-73.5703125 36.6640625 -73.5703125 36.6640625 -74.9375 38.125 C-75.5975 38.125 -76.2575 38.125 -76.9375 38.125 C-77.5975 39.775 -78.2575 41.425 -78.9375 43.125 C-79.5975 43.125 -80.2575 43.125 -80.9375 43.125 C-80.9375 44.115 -80.9375 45.105 -80.9375 46.125 C-81.5975 46.125 -82.2575 46.125 -82.9375 46.125 C-82.9375 46.785 -82.9375 47.445 -82.9375 48.125 C-83.5975 48.125 -84.2575 48.125 -84.9375 48.125 C-84.9375 49.445 -84.9375 50.765 -84.9375 52.125 C-85.5975 52.125 -86.2575 52.125 -86.9375 52.125 C-86.9375 53.445 -86.9375 54.765 -86.9375 56.125 C-87.5975 56.125 -88.2575 56.125 -88.9375 56.125 C-88.9375 57.775 -88.9375 59.425 -88.9375 61.125 C-89.5975 61.125 -90.2575 61.125 -90.9375 61.125 C-90.9375 62.775 -90.9375 64.425 -90.9375 66.125 C-91.5975 66.125 -92.2575 66.125 -92.9375 66.125 C-92.9375 69.755 -92.9375 73.385 -92.9375 77.125 C-90.9575 77.455 -88.9775 77.785 -86.9375 78.125 C-90.39419822 80.76651315 -93.97877537 83.15191872 -97.62109375 85.52734375 C-111.62039207 95.1828463 -120.47412762 111.43937024 -123.6328125 127.99023438 C-125.55686004 141.47090079 -124.14546343 154.63071939 -118.7421875 167.09375 C-117.9375 169.125 -117.9375 169.125 -117.9375 171.125 C-119.95572917 171.09244792 -121.97395833 171.05989583 -123.9921875 171.02734375 C-126.01935404 170.99850758 -126.01935404 170.99850758 -127.9375 172.125 C-131.92097406 179.42803578 -135.11580821 187.05379201 -137.375 195.0625 C-138.73208731 199.81605443 -140.68827662 204.14401749 -142.8515625 208.58203125 C-143.92915707 211.10546314 -144.50099322 213.42350806 -144.9375 216.125 C-145.5975 216.125 -146.2575 216.125 -146.9375 216.125 C-146.89625 217.011875 -146.855 217.89875 -146.8125 218.8125 C-146.93647246 222.09777013 -147.55137904 224.17949295 -148.9375 227.125 C-148.2775 227.125 -147.6175 227.125 -146.9375 227.125 C-146.2775 228.115 -145.6175 229.105 -144.9375 230.125 C-142.52142583 230.92298218 -142.52142583 230.92298218 -139.8125 231.3125 C-138.90242187 231.47105469 -137.99234375 231.62960937 -137.0546875 231.79296875 C-136.35601563 231.90253906 -135.65734375 232.01210938 -134.9375 232.125 C-134.9375 232.455 -134.9375 232.785 -134.9375 233.125 C-135.51604736 233.16987549 -136.09459473 233.21475098 -136.69067383 233.26098633 C-150.98412444 234.26371039 -150.98412444 234.26371039 -164.87890625 237.5390625 C-166.9375 238.125 -166.9375 238.125 -170.9375 238.125 C-170.9375 238.785 -170.9375 239.445 -170.9375 240.125 C-172.2575 240.125 -173.5775 240.125 -174.9375 240.125 C-174.42299313 236.00894507 -173.38059538 232.39652026 -171.87158203 228.53955078 C-170.77610962 225.70781473 -169.75818225 222.85342996 -168.7421875 219.9921875 C-165.90650433 212.02950636 -163.04179383 204.07748679 -160.17089844 196.12744141 C-159.30610533 193.73228918 -158.44210427 191.33685215 -157.578125 188.94140625 C-157.01827721 187.39060766 -156.45838304 185.8398258 -155.8984375 184.2890625 C-155.6452475 183.58681549 -155.3920575 182.88456848 -155.13119507 182.16104126 C-152.95078732 176.1272204 -150.75634636 170.09634706 -148.359375 164.14453125 C-145.18203314 156.1679805 -142.22465187 148.16382957 -139.5625 140 C-137.04319918 132.27729688 -134.31821358 124.65776944 -131.4375 117.0625 C-128.79339281 110.08867415 -126.18770073 103.11130087 -123.75 96.0625 C-120.47430805 86.60779948 -117.12446218 77.18008188 -113.7539978 67.75881958 C-113.13401828 66.02444039 -112.51519348 64.28964792 -111.89761353 62.55441284 C-101.81070599 34.22081487 -101.81070599 34.22081487 -92.9375 23.125 C-92.42832031 22.43921875 -91.91914062 21.7534375 -91.39453125 21.046875 C-80.19263658 6.87892596 -62.20251122 -1.9453719 -44.9375 -5.875 C-43.70257812 -6.22046875 -42.46765625 -6.5659375 -41.1953125 -6.921875 C-26.6152022 -10.55365725 -12.65917749 -7.80964183 0 0 Z " fill="#FFE0B6" transform="translate(748.9375,153.875)"/>
<path d="M0 0 C0.99 0.66 1.98 1.32 3 2 C3 2.66 3 3.32 3 4 C3.66 4 4.32 4 5 4 C5 4.66 5 5.32 5 6 C5.66 6 6.32 6 7 6 C7 6.66 7 7.32 7 8 C7.66 8 8.32 8 9 8 C9 8.66 9 9.32 9 10 C9.66 10 10.32 10 11 10 C11 10.66 11 11.32 11 12 C11.66 12 12.32 12 13 12 C15 15 15 15 15 18 C15.66 18 16.32 18 17 18 C18.80663373 21.9745942 19.41983075 25.69017128 20 30 C20.33 30.33 20.66 30.66 21 31 C21.09899523 32.54955559 21.13079524 34.10353673 21.1328125 35.65625 C21.13474609 37.06583984 21.13474609 37.06583984 21.13671875 38.50390625 C21.13285156 39.49261719 21.12898438 40.48132813 21.125 41.5 C21.13080078 42.98306641 21.13080078 42.98306641 21.13671875 44.49609375 C21.13542969 45.43582031 21.13414062 46.37554687 21.1328125 47.34375 C21.13168457 48.21193359 21.13055664 49.08011719 21.12939453 49.97460938 C21 52 21 52 20 53 C19.855625 54.03125 19.71125 55.0625 19.5625 56.125 C19.0082083 59.94345392 18.12585988 63.32219105 17 67 C16.34 67 15.68 67 15 67 C15 68.98 15 70.96 15 73 C14.34 73 13.68 73 13 73 C13.04125 73.70125 13.0825 74.4025 13.125 75.125 C12.98331668 78.38371628 12.13265314 80.9559947 11 84 C10.34 84 9.68 84 9 84 C9 85.65 9 87.3 9 89 C8.34 89 7.68 89 7 89 C7 90.98 7 92.96 7 95 C6.34 95 5.68 95 5 95 C5 96.98 5 98.96 5 101 C4.34 101 3.68 101 3 101 C2.96261719 101.58007812 2.92523438 102.16015625 2.88671875 102.7578125 C2.45313182 107.90984546 1.44532635 111.39150034 -1 116 C-1.80975606 118.50440019 -2.5259566 121.02821289 -3.25 123.55859375 C-4.25079928 126.81640389 -5.65811974 129.86894607 -7 133 C-8.06891584 136.31412719 -9.04963297 139.65012471 -10 143 C-10.66 143 -11.32 143 -12 143 C-11.979375 143.804375 -11.95875 144.60875 -11.9375 145.4375 C-12 148 -12 148 -13 149 C-13.50042146 151.91538029 -13.50042146 151.91538029 -13 155 C-8.84582876 159.15417124 -2.54840479 158.71820711 3 159 C3 159.33 3 159.66 3 160 C1.329375 160.14695313 1.329375 160.14695313 -0.375 160.296875 C-14.24462492 161.61422161 -28.10505586 163.19575616 -40 171 C-40.66 171.33 -41.32 171.66 -42 172 C-40.59086728 162.44608015 -36.93159985 153.71744797 -33.16015625 144.8828125 C-31.79459411 141.48959748 -30.73620526 138.07285563 -29.7734375 134.546875 C-28.01366316 128.75206253 -25.67080477 123.13897998 -23.45092773 117.50756836 C-20.79575478 110.76055427 -18.25679418 104.01378073 -16.0234375 97.11328125 C-14.03445435 91.06282487 -11.86915646 85.07267845 -9.73486328 79.07226562 C-9.05649994 77.15932609 -8.38534237 75.24383534 -7.71484375 73.328125 C-5.83879653 67.99556634 -3.90477671 62.74411398 -1.66650391 57.55151367 C5.12507495 41.55715692 8.63666681 21.54310605 2 5 C1.4121875 3.453125 1.4121875 3.453125 0.8125 1.875 C0.544375 1.25625 0.27625 0.6375 0 0 Z " fill="#FFE0B6" transform="translate(265,82)"/>
<path d="M0 0 C0 0.66 0 1.32 0 2 C-1.32 2 -2.64 2 -4 2 C-4 1.34 -4 0.68 -4 0 C-6.97809664 -0.36658158 -9.95678055 -0.71848547 -12.9375 -1.0625 C-13.76830078 -1.16626953 -14.59910156 -1.27003906 -15.45507812 -1.37695312 C-21.1863235 -2.02366953 -26.28890597 -1.82410338 -32 -1 C-33.0541518 2.16245541 -33.31275672 4.86948218 -33.5625 8.1875 C-33.64628906 9.27417969 -33.73007812 10.36085938 -33.81640625 11.48046875 C-33.90728516 12.72763672 -33.90728516 12.72763672 -34 14 C-34.66 14 -35.32 14 -36 14 C-36 14.66 -36 15.32 -36 16 C-36.928125 16.12375 -36.928125 16.12375 -37.875 16.25 C-40.15660682 16.77765557 -40.15660682 16.77765557 -40.9140625 18.84375 C-42.1342049 21.26647879 -43.43202379 22.51500301 -45.5 24.25 C-46.1084375 24.77078125 -46.716875 25.2915625 -47.34375 25.828125 C-49 27 -49 27 -51 27 C-51.144375 27.598125 -51.28875 28.19625 -51.4375 28.8125 C-51.8872439 30.56150404 -52.42892341 32.28677023 -53 34 C-53.66 34 -54.32 34 -55 34 C-55 35.32 -55 36.64 -55 38 C-55.66 38 -56.32 38 -57 38 C-56.95875 38.763125 -56.9175 39.52625 -56.875 40.3125 C-57 43 -57 43 -59 46 C-58.34 46 -57.68 46 -57 46 C-57 47.32 -57 48.64 -57 50 C-55.7934375 50.433125 -55.7934375 50.433125 -54.5625 50.875 C-52 52 -52 52 -51 54 C-58.68157848 53.2684211 -62.9674893 49.39945512 -67.703125 43.68359375 C-72.49691417 37.46033131 -71.46166404 30.53554851 -71 23 C-69.72243818 15.52045623 -64.61142378 9.02180357 -58.89453125 4.23828125 C-42.39194139 -7.35734384 -18.14508121 -9.07254061 0 0 Z " fill="#FFE0B5" transform="translate(661,467)"/>
<path d="M0 0 C2.78091715 0.38623849 4.62199134 0.71019336 6.875 2.4375 C15.44891264 8.74184753 29.88130022 7.18205539 39.9375 7.1875 C41.7637793 7.20586914 41.7637793 7.20586914 43.62695312 7.22460938 C44.79033203 7.22654297 45.95371094 7.22847656 47.15234375 7.23046875 C48.7300354 7.23663208 48.7300354 7.23663208 50.33959961 7.24291992 C53.22796975 7.1923344 53.22796975 7.1923344 56 5 C60.6087447 4.07825106 62.81064925 4.36557568 66.98046875 6.58984375 C74.35946309 11.65889204 79.43765444 17.27792718 82 26 C81.63671875 28.35546875 81.63671875 28.35546875 81 30 C80.773125 29.38125 80.54625 28.7625 80.3125 28.125 C78.54505715 25.26342587 77.20574568 24.97496565 74 24 C70.43479242 23.7412809 70.43479242 23.7412809 66.5390625 23.83984375 C65.83026947 23.84504532 65.12147644 23.85024689 64.39120483 23.85560608 C62.13558918 23.87333203 59.88043915 23.90445946 57.625 23.9375 C55.3767468 23.96527709 53.12856634 23.99001011 50.88021851 24.00868225 C48.83495359 24.02640454 46.78977946 24.0538246 44.74462891 24.08178711 C31.33481108 23.78890088 18.33028331 18.5337123 8 10 C8 9.01 8 8.02 8 7 C6.68 6.34 5.36 5.68 4 5 C4 4.34 4 3.68 4 3 C2.68 2.34 1.36 1.68 0 1 C0 0.67 0 0.34 0 0 Z " fill="#FFE0B5" transform="translate(651,345)"/>
<path d="M0 0 C0.66 0 1.32 0 2 0 C2.6708712 1.6232687 3.33657029 3.24867578 4 4.875 C4.556875 6.23238281 4.556875 6.23238281 5.125 7.6171875 C6 10 6 10 6 12 C2.7 12 -0.6 12 -4 12 C-3.52494322 10.18641846 -3.04483958 8.37415821 -2.5625 6.5625 C-2.29566406 5.55316406 -2.02882813 4.54382813 -1.75390625 3.50390625 C-1 1 -1 1 0 0 Z " fill="#FFF9F1" transform="translate(625,313)"/>
<path d="M0 0 C5.14860706 1.28715177 5.86461447 2.90658001 9 7 C6.59454362 8.20272819 5.05003047 8.10071472 2.375 8.0625 C1.14910156 8.04896484 1.14910156 8.04896484 -0.1015625 8.03515625 C-1.04128906 8.01775391 -1.04128906 8.01775391 -2 8 C-2 8.99 -2 9.98 -2 11 C-2.66 10.67 -3.32 10.34 -4 10 C-2.68 6.7 -1.36 3.4 0 0 Z " fill="#FFF9F1" transform="translate(530,569)"/>
<path d="M0 0 C3.79379058 1.49041773 5.68343758 3.69062512 8 7 C8 7.66 8 8.32 8 9 C6.01432292 8.96744792 4.02864583 8.93489583 2.04296875 8.90234375 C-0.20305461 8.91736783 -0.20305461 8.91736783 -3 10 C-2.21302675 6.58978257 -1.12880057 3.31114834 0 0 Z " fill="#FFFBF6" transform="translate(212,347)"/>
<path d="M0 0 C0.95465783 2.16967689 1.14401212 3.56328793 0.3984375 5.82421875 C-0.35870385 7.5684743 -1.17609198 9.28627131 -2 11 C-5.81684226 9.44499019 -8.19195732 6.96404505 -11 4 C-10.01 4 -9.02 4 -8 4 C-4.28904713 3.53613089 -2.40502813 2.91134984 0 0 Z " fill="#FFF8EE" transform="translate(730,411)"/>
<path d="M0 0 C0.33 0.66 0.66 1.32 1 2 C3.33744294 2.46806645 5.69739079 2.82669794 8.0625 3.125 C9.99802734 3.37636719 9.99802734 3.37636719 11.97265625 3.6328125 C12.97167969 3.75398438 13.97070312 3.87515625 15 4 C11.99049877 5.61725534 9.02896392 6.67582623 5.75 7.625 C4.85796875 7.88539062 3.9659375 8.14578125 3.046875 8.4140625 C2.37140625 8.60742188 1.6959375 8.80078125 1 9 C0.67 6.03 0.34 3.06 0 0 Z " fill="#FFE1B2" transform="translate(679,65)"/>
<path d="M0 0 C4.50231069 1.2911038 7.76217317 3.00375944 11.5 5.8125 C12.91732422 6.87404297 12.91732422 6.87404297 14.36328125 7.95703125 C17.30770786 10.23841661 20.18291033 12.56359812 23 15 C22.01 15.495 22.01 15.495 21 16 C17.5605183 14.73885671 15.5129841 12.59675024 13 10 C12.34 9.67 11.68 9.34 11 9 C11 8.34 11 7.68 11 7 C10.29875 6.7525 9.5975 6.505 8.875 6.25 C5.61912106 4.83440046 2.87631441 3.07362202 0 1 C0 0.67 0 0.34 0 0 Z " fill="#FFE2B0" transform="translate(661,469)"/>
<path d="M0 0 C0 2.97 0 5.94 0 9 C-0.33 8.01 -0.66 7.02 -1 6 C-4.63 5.34 -8.26 4.68 -12 4 C-7.72679547 1.15119698 -5.21831143 -0.28990619 0 0 Z " fill="#FFFAF3" transform="translate(303,360)"/>
<path d="M0 0 C0.33 0.66 0.66 1.32 1 2 C3.64 1.67 6.28 1.34 9 1 C5.57611908 4.82669043 2.99275057 6.72278474 -2 8 C-1.125 2.25 -1.125 2.25 0 0 Z " fill="#FFFBF6" transform="translate(839,459)"/>
<path d="M0 0 C2.09230769 4.43076923 2.09230769 4.43076923 1.625 7.3125 C1.41875 7.869375 1.2125 8.42625 1 9 C0.76539063 8.37609375 0.53078125 7.7521875 0.2890625 7.109375 C-1.36823075 4.39744059 -2.6141599 4.11024003 -5.625 3.25 C-6.44226563 3.00765625 -7.25953125 2.7653125 -8.1015625 2.515625 C-8.72804688 2.34546875 -9.35453125 2.1753125 -10 2 C-6.3558226 -0.4294516 -4.28758728 -0.16179575 0 0 Z " fill="#FFF4E5" transform="translate(731,366)"/>
<path d="M0 0 C0.66 0.33 1.32 0.66 2 1 C-2.95 5.95 -7.9 10.9 -13 16 C-13 10.79628205 -8.49504984 7.5790344 -5 4 C-3.37707762 2.6137538 -1.7331451 1.24569804 0 0 Z " fill="#FFD8A3" transform="translate(668,165)"/>
<path d="M0 0 C0.66 0.33 1.32 0.66 2 1 C-2.62 5.62 -7.24 10.24 -12 15 C-12 10.81257912 -9.7797863 8.86923487 -7 6 C-4.72436307 3.92653743 -2.388922 1.9414294 0 0 Z " fill="#FFBC63" transform="translate(651,238)"/>
<path d="M0 0 C0.66 0 1.32 0 2 0 C2 0.66 2 1.32 2 2 C2.78375 2.28875 3.5675 2.5775 4.375 2.875 C7 4 7 4 9 6 C6.03 6 3.06 6 0 6 C0 4.02 0 2.04 0 0 Z " fill="#FFF9F3" transform="translate(381,508)"/>
<path d="M0 0 C2.31 0.66 4.62 1.32 7 2 C4.14693203 4.32472205 1.45925163 5.7508258 -2 7 C-1.125 2.25 -1.125 2.25 0 0 Z " fill="#FFFBF6" transform="translate(655,230)"/>
<path d="M0 0 C0.66 1.32 1.32 2.64 2 4 C-1.63 3.67 -5.26 3.34 -9 3 C-7.14340032 -0.71319936 -3.69365381 -0.09982848 0 0 Z " fill="#FFF9F0" transform="translate(446,598)"/>
<path d="M0 0 C0.66 0 1.32 0 2 0 C2.66 0.99 3.32 1.98 4 3 C4.99 3.66 5.98 4.32 7 5 C2.545 5.495 2.545 5.495 -2 6 C-1.34 4.02 -0.68 2.04 0 0 Z " fill="#FFFBF7" transform="translate(600,381)"/>
<path d="M0 0 C0.66 0.33 1.32 0.66 2 1 C-1.63 4.63 -5.26 8.26 -9 12 C-9 8.00102358 -7.64683965 6.93298448 -5 4 C-3.36643049 2.62631655 -1.7074998 1.28062485 0 0 Z " fill="#FFD7A1" transform="translate(605,469)"/>
<path d="M0 0 C1.98 0.99 3.96 1.98 6 3 C6 4.32 6 5.64 6 7 C4.02 7.99 4.02 7.99 2 9 C2 6.69 2 4.38 2 2 C1.34 2 0.68 2 0 2 C0 1.34 0 0.68 0 0 Z " fill="#FFE3BD" transform="translate(686,487)"/>
<path d="M0 0 C4.75 1.875 4.75 1.875 7 3 C7 3.66 7 4.32 7 5 C4.36 5 1.72 5 -1 5 C-0.67 3.35 -0.34 1.7 0 0 Z " fill="#FFFCF9" transform="translate(250,237)"/>
<path d="M0 0 C2.76843107 1.31684221 5.2577288 2.77850245 7.75 4.5625 C8.67039062 5.21412109 8.67039062 5.21412109 9.609375 5.87890625 C10.29773438 6.43384766 10.29773438 6.43384766 11 7 C11 7.33 11 7.66 11 8 C8.70703125 8.25 8.70703125 8.25 6 8 C4.19921875 6.25 4.19921875 6.25 2.6875 4 C1.91986328 2.88625 1.91986328 2.88625 1.13671875 1.75 C0.57404297 0.88375 0.57404297 0.88375 0 0 Z " fill="#FFD6A4" transform="translate(535,571)"/>
<path d="M0 0 C3.3 0 6.6 0 10 0 C6 3 6 3 2.75 2.6875 C1.8425 2.460625 0.935 2.23375 0 2 C0 1.34 0 0.68 0 0 Z " fill="#FFEFD9" transform="translate(721,237)"/>
<path d="M0 0 C0 3 0 3 -1.125 4.75 C-3 6 -3 6 -6.1875 5.6875 C-7.115625 5.460625 -8.04375 5.23375 -9 5 C-9 4.67 -9 4.34 -9 4 C-7.6078125 3.566875 -7.6078125 3.566875 -6.1875 3.125 C-2.90208333 2.1125 -2.90208333 2.1125 0 0 Z " fill="#FFF0D4" transform="translate(313,239)"/>
</svg>
